<svg version="1" xmlns="http://www.w3.org/2000/svg" width="933.333" height="933.333" viewBox="0 0 700.000000 700.000000"><path d="M189 350v280h60V70h-60v280zM474 350v280h60V70h-60v280zM369.5 317c-.3.5-1.3.6-2.3.3-1.3-.5-1.4-.3-.6.6 1.5 1.6 6.5 2.2 5.8.7-.3-.6.2-.2 1.2.9 1.1 1.4 1.5 1.5 1.1.4-.3-.9 0-1.6.8-1.6 1 0 1.1.5.4 1.9-1.3 2.5.3 2.3 1.9-.2.7-1.1 1.8-2 2.5-2s.8.3.2.8c-.5.4-1.1 1.1-1.2 1.7-.1.5-.4 1.7-.8 2.6-.4 1 0 1.6 1 1.6.9 0 1.4-.6 1.1-1.4-.4-.9-.1-1.1.6-.7.8.5.9.2.5-.9-.3-.9-.2-1.9.3-2.2 2.1-1.3.8-2.2-2.7-2-2.1 0-5-.2-6.5-.6-1.5-.4-3-.4-3.3.1z"/><path d="M397 316.8c0 .6-1.4.9-3.2.6-3-.3-3-.3-1 .6 3 1.2 2.4 3.5-.9 3.4-1.8 0-2.3-.5-2.2-2.1.2-1.7-.3-2.1-2-2.1-2.6.2-5.9 2.7-5.1 3.9.8 1.4-1.6 5-2.8 4.3-.8-.5-.9-.1-.5 1 .4 1 .7 2 .7 2.2 0 .3.5.2 1.2-.2s.8-.3.4.4-.3 1.2.3 1.2c1.8 0 2.3-2 .7-2.6-1.7-.7-1.2-2.4.6-2.4.6 0 .8.3.5.7-.8.7 1.1 3.3 2.5 3.3.5 0 0-1.4-1.2-3-1.2-1.7-1.6-2.9-1-2.8.7.2 1.5-.3 1.8-1.1.2-.8 0-1.1-.6-.7-.6.3-1.4.1-1.8-.5-.4-.7-.3-.9.4-.5.5.3 1.2.1 1.4-.6.2-.6 1.2-1.2 2.1-1.4 1.3-.2 1.5.2.7 1.6-1.3 2.3-1.3 3.3-.1 2.5.5-.3 1.3 0 1.7.6.4.8.9.7 1.5-.2.8-1.2 1-1.2 1.8 0 .6.9 1.1 1 1.5.2.4-.6 1.2-.8 1.8-.5.6.4.8-.1.4-1.4-.9-2.6 1-3.8 2.3-1.5 1 1.7 1.2 1.7 2.1.1.6-.9 1.9-1.5 3-1.3 1.1.2 2 0 2-.5s-1.5-.8-3.2-.6c-1.8.2-3.9-.1-4.5-.6-.9-.7-1.3-.7-1.3 0zM413 316.8c0 .6-1.4.9-3.2.6-1.8-.2-2.6-.1-1.8.3.8.3 2.1 1.1 2.9 1.7 1.1.8 1.3.8.8-.1-.8-1.2 1-1.2 3.1 0 .6.5 1.8.5 2.5 0 1.9-1.2 3.8-1.2 3.1-.1-.4.7-.2.8.4.4 2.3-1.4 1.2-2.6-2-2.2-1.8.2-3.9-.1-4.5-.6-.9-.7-1.3-.7-1.3 0zM429 316.8c0 .6-1.4.9-3.2.6-2.5-.3-2.8-.2-1.3.5 1.1.5 2.3.7 2.7.4.4-.2.5.3.2 1.1-.3.9-.1 1.6.6 1.6.6 0 .9-.4.5-.9-.3-.5-.1-1.2.4-1.5.9-.6 4.7 4.3 4.3 5.6-.1.5.3.8.8.8 1.3 0 1.3-2.7-.1-3.5-1.4-.9-.6-2.8 1.4-3.1 1-.1 1.4.2 1.1.8-.4.7-.2.8.4.4 2.3-1.4 1.2-2.6-2-2.2-1.8.2-3.9-.1-4.5-.6-.9-.7-1.3-.7-1.3 0zM445 316.8c0 .6-1.4.9-3.2.6-2.5-.3-2.8-.2-1.3.5 1.1.5 2.8.7 3.8.5 1-.2 2.1.3 2.4 1.1.8 2.2 1.9 1.8 2-.6.1-1.2-.1-1.9-.4-1.5-.3.3-1.2.1-2-.5-.8-.8-1.3-.8-1.3-.1zM115.6 317.8c-.4.7-.2 1.2.4 1.2 1.3 0 .9 4.2-.5 5.2-.6.5-.5.8.3.8 1 0 1 .5.1 2.1-.8 1.6-.8 2 .1 1.4 1.4-.9 1 2.7-.5 3.7-.6.5-.5.8.2.8.9 0 1 .7.3 2.5-.6 1.6-.6 2.6.1 3.1.6.4.6 1.1-.2 2-.9 1.1-.8 1.5.5 2s1.4.9.4 2.1c-1.4 1.7-1.6 6.4-.2 6 .5-.1.9-.7.9-1.3 0-.6.6-1.9 1.4-2.8.7-.9.9-1.6.3-1.6-1.4 0-.8-3.3.6-3.8.7-.2 1.2-.8 1.2-1.3 0-.6-.4-.8-.8-.5-.4.2-1.4.1-2.2-.5-1.1-.6-1.2-.9-.2-.9.8 0 1-.5.6-1.2-1.2-2-1.2-7 0-5.8 1.9 1.9 2.9 1 1.1-1-1-1.2-1.9-3.3-2-4.9l-.1-2.8 3 1.8c3.8 2.3 4.3 2.3 4.3.4 0-.9-.6-1.4-1.4-1.1-.9.4-1.1.1-.7-.6.5-.7.2-.9-.9-.5-1.9.7-4.4-1.8-2.7-2.8 1.3-.8 1.3-2.5-.1-2.5-.5 0-.7.4-.4 1 .3.5.2 1-.4 1-.5 0-1.1-.5-1.3-1.2-.3-.9-.6-.9-1.2 0z"/><path d="M120.7 318.2c-.7 2.1-.6 3.3.4 3 1.6-.4 5 1.8 4.4 2.9-1.3 2 1.5.8 2.9-1.3 2.3-3.2 1.9-4.7-.4-1.9-1.1 1.3-2.1 1.9-2.2 1.5 0-.5-.2-1.4-.3-1.9-.2-.6-.3-1.6-.4-2.3 0-.6-1-1.2-2-1.2s-2.1.6-2.4 1.2zm3.2 2.1c0 .8-.2.8-.6-.1-.4-1-.8-1-2.1 0-1.5 1.2-1.6 1.1-.3-.4 1.4-1.9 3.2-1.5 3 .5z"/><path d="M126.3 319.1c.1 1.4.4 1.5 1.4.7 1.7-1.4 1.6-2.5-.1-2.5-.8 0-1.4.8-1.3 1.8zM130.5 319.7c.2 1.6.4 3.1.4 3.5.1 1 3.5.2 3.9-1 .2-.6-.5-1-1.5-.8-1.3.3-1.9-.2-1.9-1.4 0-1 .4-1.6.8-1.4.4.3.8 0 .8-.5 0-.6-.6-1.1-1.4-1.1-1 0-1.3.9-1.1 2.7zM134.5 318c.3.5 1.4.7 2.5.5 1.2-.2 1.8 0 1.5.5-.3.5-.1 1.1.4 1.4.7.5 2.1-1.4 2.1-2.9 0-.2-1.6-.3-3.5-.3s-3.3.4-3 .8z"/><path d="M141.9 318.2c-.1.7-.1 1.6-.1 2 .2 1.3-2.8 1.7-4 .5-1.7-1.6-4.8-2.1-4.8-.7 0 .6.4.9.9.6.4-.3 1.6.1 2.6.8 1.4 1 1.5 1.5.5 2.1-.9.6-1.1.4-.5-.6.7-1.1.6-1.1-.9.1-2.2 1.8-4.4 2.1-5.2.8-.3-.5-1.4-.2-2.5.8-1.9 1.7-8.4 3-7.5 1.5.3-.5 0-1.1-.7-1.4-1.7-.6-1.5 2.6.2 4.7 1.8 2.1 3.1 2 2.6-.2-.2-1.1.4-1.8 1.6-2 1-.1 2.8-.3 3.9-.4 1.1-.1 2-.7 2-1.2s.6-.2 1.3.9c1.3 1.7 1.4 1.7 2.8-.2.9-1.3 2.2-1.9 3.6-1.7 1.3.2 2.2 0 2-.5-.1-.5.3-.8.8-.8.6.1.9.5.8.9-.4 1.1 1.5 1 2.2-.1.3-.5.1-1.3-.5-1.6-.8-.5-.7-1.2.2-2.3 1.1-1.3 1.1-1.4-.1-.7-1 .5-1.2.4-.7-.4.4-.6 1.2-.9 1.7-.6.5.4.9.1.9-.4 0-1.5-3-1.4-3.1.1zM146.5 318c.3.5 1.4.7 2.4.5 1.6-.3 1.9.1 1.5 2.2-.3 1.7-.1 2.2.7 1.7.7-.4.9-.3.6.3-.4.6 0 1.4.9 1.7 2.5.9 2.5.8.9-1.8-.8-1.3-1.3-3-1-3.9.5-1.2-.1-1.5-2.9-1.5-2 0-3.4.4-3.1.8z"/><path d="M153.6 318.6c-.9 2.4-.7 3.1.5 1.1.6-.9 1.4-1.5 2-1.2.5.4.9.1.9-.4 0-1.7-2.7-1.3-3.4.5z"/><path d="M158.5 318c.3.5 1.5.7 2.6.5 2-.4 2-.3.6 1.8-.8 1.2-2.3 2.1-3.2 1.9-1-.2-1.4.1-1 .7.4.7 0 .8-1.1.4-1-.4-1.3-.8-.7-1 .7-.3.9-1.2.6-2-.6-1.4-.7-1.4-1.4.3-.3 1-.2 2.4.3 3.1.6.7.5 1.4-.2 1.8-1.6 1-6.1-2.3-5.8-4.2.4-1.9-3.1-2.7-4.9-1.1-1 .8-1.1 1.4-.1 2.5.9 1.1.9 1.6-.3 2.4-.8.5-1.9.7-2.6.4-.7-.2-1.5.1-1.9.7-.5.7-.2.8.5.3 1-.6 1.1-.3.2 1.3-.6 1.2-.7 2.3-.2 2.6.4.3 1.3-.6 1.9-1.9.8-1.7 1.7-2.3 3.2-2 1.1.2 2 0 2-.4s.7-.8 1.5-.8 1.2.5.8 1c-.3.5.4.6 1.8.2 1.7-.4 2-.3 1 .3-.9.7-1 1.2-.2 1.6.6.4 1.1.2 1.1-.4 0-.7.6-1 1.3-.7.6.2 1 1.3.9 2.3-.2 1-.1 1.6.4 1.2.4-.4 1.3-.3 2.1.3 2 1.7 1.6-.4-.6-2.8-1.9-2-1.9-2.1.5-3.2 1.4-.6 2.3-.7 2-.2-.3.5.1 1.2 1 1.5.8.3 1.2 1 .9 1.6-.3.5-.1 1 .4 1 1.4 0 1.4-2.3 0-3.7-.9-.9-.6-1.9 1-4.1 1.1-1.7 2.1-3.2 2.1-3.5 0-.3-1.6-.5-3.5-.5s-3.3.4-3 .8zm-9.5 2.6c0 .8-1.9 1.3-2.4.6-.3-.5.1-.9.9-.9s1.5.2 1.5.3zm0 3.5c0 1.3-2.8.5-3.8-1.1-.9-1.6-.8-1.6 1.4-.6 1.3.6 2.4 1.4 2.4 1.7z"/><path d="M165.4 318.7c-.4 1-.6 2.4-.5 3.1.1.7-.4 1.1-1.1 1-.7-.2-1.3.4-1.3 1.2 0 .8.6 1.4 1.3 1.2 1.6-.3 1.5.9-.1 3.2-.8 1.1-1.9 1.5-3.1 1-1.2-.5-1.4-.9-.6-1.4.8-.5.5-.9-.9-1.3-1.8-.4-1.9-.2-1 1.4.5 1 1.5 1.9 2.1 1.9.7 0 .6.5-.2 1.5-.7.8-1.7 1.2-2.4.8-.6-.4-1.5-.8-2.1-.8-.5 0-.9-.8-.9-1.8.2-1.4-.1-1.5-1.3-.5-1.1.9-1.6.9-2.2-.1-.6-.9-1.1-.8-2 .3-.7.8-1.9 1.2-2.7.9-.9-.3-1.2 0-.9.9.8 1.9 3.3 1.9 4 0 .5-1.2.8-1.2 2.5.3 1.1 1 2 1.4 2 .9 0-.5.4-.3.9.5 1 1.6 4.1 2.4 4.1 1.1 0-.5 1.3-.7 2.8-.5 2 .3 2.9-.1 2.9-1.1 0-.9-.6-1.3-1.4-1-.8.4-1.1.1-.8-.5.4-.6 1.3-.8 2-.5.9.3 1.1-.2.8-1.7-.4-2-.3-2 .7-.4.9 1.4.9 2.2 0 3.3-.7.8-.8 1.4-.2 1.4 1.9 0 3.2-2.6 1.9-3.9-.9-.9-.9-1.4.3-2.1 1.4-.9 1.3-1.1-.9-1.4-1.6-.2-2.3-1.4-1.5-2.7.5-.9 1.1-.7 2.1.6 1.1 1.6 1.3 1.6 1.3.3 0-.8-.7-2.1-1.5-2.8-1.5-1.3-1.1-3.5.6-2.5.5.4.9.1.9-.4 0-1.8-2.7-1.2-3.6.6z"/><path d="M170.5 318c.4.6 1.1.7 1.7.4.6-.4.8-.3.5.3-.4.6-1.8.9-3.2.7-2.1-.2-2.4 0-1.4 1.2.6.7 1.5 1.1 2 .8 1.2-.7 1.1.3-.2 2.8-.9 1.6-.8 1.9.3 1.5.7-.2 1.2-1 1.1-1.6-.2-.6.2-1.1.7-1.1 1.2 0 1.3 1.3.3 2.4-1.2 1.2-1.2 3.4 0 3.9.8.3 1.2-1 1.3-3.9 0-2.3-.3-4.1-.8-3.8-.4.3-.8.1-.8-.5 0-.5.5-1.3 1-1.6 1.4-.8.3-2.5-1.6-2.5-.8 0-1.2.5-.9 1zM264.6 318.1c.6 1 4.4.7 4.4-.3 0-.4-1.1-.7-2.4-.6-1.4.1-2.3.6-2 .9zM270.5 318c.3.5 1.4.7 2.5.5 1.7-.3 1.8-.1 1 1.5-1.3 2.5-1.3 2.6 1.1 2.7 1.6.2 1.8-.1.9-1.2-.7-.9-.8-1.5 0-2 2-1.3.9-2.3-2.5-2.3-1.9 0-3.3.4-3 .8z"/><path d="M277.3 319c-.8 1.2-.9 2.1-.3 2.5 1.2.7 3-.2 3-1.6 0-.6-.5-.7-1.2-.3-.7.4-.8.3-.4-.5.4-.6 1.2-.9 1.7-.6.5.4.9.1.9-.4 0-1.8-2.4-1.2-3.7.9zM282.5 318c.3.5 1.4.7 2.4.5 1.6-.3 1.9.1 1.5 2.3-.3 2.1-.2 2.4.6 1.2.9-1.3 1.1-1.3 2 0 .6.9 1 1 1 .3 0-.6-.4-1.4-1-1.8-.5-.3-.7-1.2-.4-1.9.4-1-.4-1.4-3-1.4-2 0-3.4.4-3.1.8z"/><path d="M289.7 318.5c-.4.8-.2 1.7.4 2.1.6.3.8 1.3.5 2.1-.7 1.8 1.2 5.6 2.5 4.8.5-.4.9-1.1.9-1.6 0-.6-.4-.7-1-.4-.6.4-.7-.1-.3-1.1.5-1.3.3-1.5-.8-1-.8.4-.3-.2 1-1.3 2.7-2.4 2.1-4.2-.6-2-1.4 1.2-1.6 1.2-.8 0 .6-1 .4-1.2-.5-.6-.9.5-1.1.4-.6-.4.4-.6 1.2-.9 1.7-.6.5.4.9.1.9-.4 0-1.6-2.7-1.3-3.3.4z"/><path d="M294.8 318.3c1.4 1.8 1.1 4.9-.5 4.3-1.1-.4-1.1-.1-.3 1.4s.6 2.6-.7 4.7c-1 1.5-1.3 2.4-.6 2 1.6-1 2.8 1.2 1.4 2.6-1.8 1.8-1.2 3.1.7 1.5.9-.9 2.3-1.3 3.1-1 .8.3 1.1 0 .7-.7-.4-.6-.2-.9.7-.5.8.3 1.4-.2 1.4-1.1 0-1.8-.2-1.8-3-.4-1.2.7-1.9.8-1.5.4.4-.4 0-1.3-.9-2-1.3-.9-1.3-1.4-.3-2 .9-.5 1.1-.4.6.3-.4.7-.1 1.2.9 1.2.9 0 1.4-.4 1-.9-.3-.5-.1-1.2.5-1.6 1.3-.8 1.3-3.5-.1-3.5-.5 0-.8.4-.4.9.3.5.1 1.2-.4 1.5-.5.4-1.3.1-1.7-.5-.4-.7-.3-.9.4-.5s1-.1.7-1.3c-.3-1.5 0-1.8 1.3-1.4 1.5.6 1.5.5-.1-1.4-1.4-1.6-1.4-2-.2-2 .8 0 1.2.4.9.8-.2.4 0 1 .5 1.3.7.5 2.1-1.4 2.1-2.9 0-.2-1.6-.3-3.5-.3-2.6 0-3.3.3-2.7 1.1z"/><path d="M300.8 320c-.9 1.7-1.3 3-.8 3 1.2 0 .9 2.2-.4 3.2-2 1.4-1.3 3.3 1.3 3.5l2.6.1-2.5-1.4c-2-1.2-2.1-1.4-.4-.9 1.4.4 2.1.1 2.1-1 0-.8-.3-1.5-.7-1.5-.4 0-.7-.7-.7-1.5s.4-1.2.8-1c.4.3 1-.2 1.3-1.1.9-2.4.7-3.1-.5-1.4-.9 1.3-1 1.3-.6 0 .2-.8 1-1.4 1.6-1.3.6.2 1.1-.2 1.1-.7 0-2.1-2.6-.9-4.2 2zM306.5 318c.3.5 1.5.7 2.6.5 1.7-.4 1.9-.2.9 1-1.5 1.8.1 2 1.8.3 2-2 1.4-2.6-2.3-2.6-1.9 0-3.3.4-3 .8z"/><path d="M313.5 318.9c-.3 1.1-1.3 2.2-2.1 2.5-1.8.7-3.7-.1-3-1.3.3-.4-.3-.7-1.2-.8-2.3-.2-4.7 4.7-2.9 5.9.9.6.9.8-.2.8-.8 0-1.2.3-.8.6.3.3 1.4.1 2.4-.5s1.3-1.1.7-1.1c-.6 0-1.1-.7-1.1-1.6 0-1.4.2-1.5 1.1-.2 1.5 2.1 2.3 2.1 4.4 0 1-.9 2.7-2.3 3.8-3 1-.7 1.3-1 .5-.6-.9.5-1.2.3-.7-.5.4-.6 1.2-.9 1.7-.6.5.4.9.1.9-.4 0-1.9-2.8-1.2-3.5.8zm-5.4 2.8c1.3 1.6 1.2 1.7-.3.4-1.7-1.3-2.2-2.1-1.4-2.1.2 0 1 .8 1.7 1.7zM318.6 318.1c.3.5 1 .7 1.5.4.5-.3.6.2.3 1.2-.6 1.5-.4 1.5 1-.2.9-1.1 1.5-1.4 1.4-.6-.2.7.2 1.5.7 1.7.6.2 1.1-.4 1.2-1.5.1-1.5-.5-1.9-3.3-1.9-1.9 0-3.1.4-2.8.9z"/><path d="M325.9 318c-.1.5-.3 1.4-.4 2-.1.5-.3 1.5-.4 2.1-.1.8-.5.8-1.5 0-.7-.6-2.1-.9-3-.5-1.1.4-1.6.1-1.6-1.1 0-1.8-.1-1.8-4.7 1-3.2 2-5.4 5.9-2.7 4.8.8-.3 1.4-1.3 1.4-2.2 0-1.2.2-1.3.9-.3 1.1 1.8 2.2 1.7 3.3-.3.9-1.5 1.2-1.5 3.4 0 1.3.8 2.4 1.2 2.4.7s.7-.9 1.5-.9 1.5.5 1.5 1.1c0 .6.5.4 1-.4 1.4-2.1 1.2-3.3-.2-2.4-.8.5-.7 0 .2-1.1 1.2-1.5 1.2-1.7.1-1-1 .5-1.2.4-.7-.4.4-.6 1.2-.9 1.7-.6.5.4.9.1.9-.4 0-1.4-3-1.4-3.1-.1zm-7.9 2.4c0 .2-.8 1-1.7 1.7-1.6 1.3-1.7 1.2-.4-.4 1.3-1.6 2.1-2.1 2.1-1.3zM330.5 318c.3.5 1.4.7 2.5.5 1.4-.3 1.7.1 1.3 1.3-.6 1.5-.5 1.5 1 .3 2.6-2.1 2.1-2.9-1.8-2.9-1.9 0-3.3.4-3 .8zM336.7 319.6c-2.2 3-1.4 4.3 1.5 2.5 1.4-.9 2.3-1 3.1-.2 1.4 1.4 3.7 1.4 3.7.1 0-.6-.6-.9-1.2-.8-.7.2-1.2-.3-1.1-.9.4-1.6-2.9-1.2-5.4.7-1.7 1.4-1.7 1.3.1-.7 1-1.3 2.3-2 2.7-1.7.5.3.9 0 .9-.5 0-2-2.5-1.1-4.3 1.5z"/><path d="M343 318.4c.5.7.6 1.7.2 2.1-.4.5-.2.5.5.1 2-1.1 2.7 1.6.8 3.1-2.3 1.6-3.6 1.7-3.2 0 .1-.6-.5-1.2-1.3-1.2s-1.4.5-1.3 1.2c.5 2.5-3.7.8-4.8-2-.9-2.1-1.4-2.5-2-1.5-1.2 1.8-1.1 3.1 0 2.3.6-.3 1.5.5 2.2 1.7 1.5 2.8 3.9 4.7 5.8 4.8 1.1 0 1-.4-.4-1.3-1.3-1-1.5-1.6-.6-2.1 1.3-.8 2.5-.1 2.7 1.5.3 2.2.5 2.3 1.3 1 .7-1.1 1.3-1.2 2.3-.3 1.1.9 1.7.9 2.6 0 1.7-1.7 1.5-3.3-.2-1.8-1.1.9-1.9.9-3.3 0-1.6-1-1.6-1.1.4-.7 1.5.3 2 .1 1.7-.8-.3-.7-.1-1.6.5-2 .6-.3.9 0 .5.8-.3.8.2 1.4 1.1 1.4 1.1 0 1.4-.5.9-1.6-.4-.9-.7-2.6-.7-3.8.1-1.7-.5-2.1-3.4-2.1-2.6 0-3.1.3-2.3 1.2zm3.7 1.3c0 .9-.4 1-1.4.2-.7-.6-1.3-1.2-1.3-1.4 0-.1.6-.2 1.3-.2.8 0 1.4.6 1.4 1.4z"/><path d="M349.6 318.6c-.9 2.4-.7 3.1.5 1.1.6-.9 1.4-1.5 2-1.2.5.4.9.1.9-.4 0-1.7-2.7-1.3-3.4.5zM354.5 318c.3.5 1.5.7 2.6.5 1.7-.4 1.9-.2.9 1-1.5 1.8.1 2 1.8.3 2-2 1.4-2.6-2.3-2.6-1.9 0-3.3.4-3 .8z"/><path d="M360.7 319.6c-1.8 2.3-4.4 2.8-4 .7.1-.5-1.1-.9-2.8-.9-1.6 0-2.9.4-3 1-.3 4.4-.8 5.8-2.4 7.6-2.1 2.3-1.2 4 1.3 2.3.9-.6 1.6-2 1.5-3.2-.2-1.2.2-2.1.8-2.1.6 0 .9-.9.6-2-.6-2.3 1.1-3.8 1.9-1.7.3.9 1.6 1.4 2.9 1.2 1.4-.1 2.2.2 1.9.6-.3.5-.3.9 0 .9s1.3-1.4 2.2-3.2c1.6-3 1.7-3.1 3-1.3.8 1 1.4 1.6 1.4 1.2 0-.4.9-.3 2 .3s1.9 1.6 1.7 2.2c-.1.6.3 1.2 1 1.5.8.3 1.1-.3.8-1.7-.3-1.8-.2-2 1-1 .8.7 1.2 1.7.9 2.2-.3.5.2.8 1.1.6 1-.2 2 .3 2.2.9.3.7 0 1.3-.7 1.3-.6 0-.8.5-.4 1.1.4.8.9.7 1.6-.2.6-1 .7-.7.3 1-.4 1.4-.3 2.1.2 1.8.5-.4 1 0 1 .8s-.4 1.5-.8 1.5c-.7 0-.6 2.6.2 3.4.2.2 1-.2 1.7-1s.9-1.4.4-1.4-.9-.7-.9-1.5.4-1.5.9-1.5c.4 0 .8.6.8 1.4 0 .7.7 1.9 1.5 2.6 1.7 1.4 2.1 0 .4-1.7-.8-.8-.7-1.3.2-1.8.8-.6 1-.4.4.4-.4.7.4.5 1.9-.4 1.4-1 2.6-1.3 2.6-.9 0 1.1 2-1.8 2-2.9 0-.5-.4-.6-.9-.2-.5.3-1.2.1-1.5-.4-.4-.5.2-.8 1.1-.7 1 .2 2.1-.2 2.6-.8.4-.7 1-.8 1.5-.1 1.2 1.6 3.2 1.6 3.8 0 .3-.8 1.1-1.2 1.7-.8.6.3.7.1.3-.6-.4-.6-.4-1 .1-.9.4.1 1.8-.3 3.1-1 1.2-.7 2.7-1 3.2-.7.5.3.7 0 .4-.8-.2-.7-1.1-1.4-1.9-1.4-.8 0-1.2.4-1 .8 1.1 1.7-3 1.9-4.3.2-1.1-1.6-1.2-1.6-1 .7.2 1.4-.2 2.5-.9 2.6-.7.1-1.5.3-1.8.4-.6.3-4.4.3-4.7 0-1.1-.8-3.9-.6-4.5.2-.4.7-.1.8.7.3 1-.6 1.2-.4.7.8-.3.9-.2 1.9.4 2.2 1.4.9-.1 2.7-1.7 2.1-.7-.3-1.6-.1-1.9.4-.4.6-1 1-1.6 1-1.4 0-5-6.3-4.4-7.8.3-.7 0-1-.5-.7-.5.3-2-.1-3.3-1-1.3-.8-2.6-1.3-2.9-1-.7.8-5.8-1.6-5.8-2.7 0-1.7-2.6-.7-4.3 1.8zm-9.7 7.8c0 .2-.8 1-1.7 1.7-1.6 1.3-1.7 1.2-.4-.4 1.3-1.6 2.1-2.1 2.1-1.3zM451.1 318.7c1 1.1.8 1.2-.6.7-1.2-.5-1.6-.4-1.1.4 1 1.6-1.6 2.7-2.8 1.1-1.3-1.6-3.6-2.3-3.6-1 0 .5 1 1.2 2.3 1.6 1.3.4 1.7.8.9 1.2-.6.2-1 .9-.6 1.4.3.5 1.8 0 3.3-1.1 2.4-1.6 3.2-1.8 5.3-.8 2.1 1 2.5 1.9 2.4 5.8 0 4-.3 4.8-2.5 5.8-1.7.8-2.8.9-3.5.2-.5-.5-1.7-1-2.5-1-1.1 0-.9.4.6 1.5 1.4 1 2 2.1 1.6 3.2-.4 1.1-.3 1.4.5.9.7-.4 1-.2.6.7-.3.8.2 1.4 1.1 1.4 1.8 0 1.8-.2.4-2.9-.6-1.2-.7-1.8-.1-1.4.5.3 1.3-.1 1.6-1 .3-.8 1-1.2 1.6-.9.5.3 1 .1 1-.5s.4-.9.9-.5c.6.3.6-.6.1-2.5-.5-1.6-.6-3-.2-3 .4 0 .7-1.1.7-2.5s-.3-2.5-.7-2.5c-.9 0-.6-3 .4-4.6.5-.8-.7-1.1-3.7-1.1-3.7 0-4.3.2-3.4 1.4zm4.8.6c.6.8.8 1.7.4 2-.7.8-3.3-1.1-3.3-2.4 0-1.3 1.6-1.1 2.9.4zM157 319.9c0 1.1 2.6 2.2 3.4 1.4.3-.4.6-1.1.6-1.7 0-.6-.5-.4-1 .4-.6 1-1 1.1-1 .2 0-.6-.4-1.2-1-1.2-.5 0-1 .4-1 .9zM265.3 320.8c-1.9 1.9-1.6 2.7.3 1.1 1.5-1.2 1.6-1.1.8 1.1-.4 1.4-.8 3.7-.9 5.2 0 1.6-.4 2.8-.8 2.8-.5 0-.5.4-.2 1 1.3 2.1 2.3.9 2-2.3-.2-1.7-.1-2.4.1-1.5.3 1 1 1.8 1.5 1.8.6 0 .7-.5.3-1.2-.9-1.4-1.5-6.2-.7-5.4.4.3 1.2.1 1.9-.5s1.4-.6 1.8-.1c.3.6-.1 1.5-.9 2.2-1.8 1.5-2 4-.3 4 .6 0 .8-.3.5-.7-.4-.3 0-1.4.8-2.3 1.2-1.3 1.3-2.1.3-4.2-1.4-2.9-4.2-3.3-6.5-1zm4.7-.2c0 .8-1.9 1.3-2.4.6-.3-.5.1-.9.9-.9s1.5.2 1.5.3zM279.2 321.8c-2.1 2.2-2.2 2.8-1.1 4.8 1.5 2.9 2.4 3.1 2.6.4.1-1.1-.2-1.8-.7-1.5-.5.3-1.1.1-1.4-.4-.4-.5-.1-1.3.5-1.7.7-.4.9-.3.6.3-.3.5 0 1 .8 1s1.5-.4 1.5-.9c0-.4-.5-.8-1.2-.8-.9 0-.9-.3 0-1.2 1-1 1.6-.8 3 .6 1 1.1 1.1 1.5.3 1.1-1.1-.6-1.3-.4-.8.9.4 1 .3 1.5-.3 1.1-.6-.3-1-.2-1 .4 0 .5.4 1.2.9 1.6 1.3.8 2.9-2.4 2.6-5.4-.2-3.3-3.4-3.5-6.3-.3zM328.9 319.2c-.1.4-.9 5.1-1.1 6.6-.1.9-.5.9-1.2.2-1.3-1.3-3.6-1.3-3.6 0 0 .5.6.9 1.3.7.6-.1 1.1.3 1 1-.2.6.7 1.1 1.8 1 1.4-.1 1.9-.7 1.6-1.9-.3-1-.1-1.6.4-1.2.5.3.6-.3.2-1.3-.8-2.3.1-1.5 1.7 1.6.6 1.3.8 2.1.3 1.8-.5-.3-1.4.3-2.1 1.4-1.3 2.1-.3 2.6 1.5.8.9-.9 1.9-.6 4.2 1 1.8 1.3 3.2 1.7 3.6 1.1.3-.5.1-1-.5-1s-.9-.4-.5-.9c.3-.6-.3-1.5-1.4-2-1.1-.6-2.2-2-2.6-3.1-.3-1.1-1.2-1.9-1.8-1.7-.7.1-1.1-.8-1-2.1.2-1.2-.2-2.2-.7-2.2-.6 0-1 .1-1.1.2zm7.5 10.7c-.2.3-1.2-.3-2.2-1.3-1.6-1.7-1.6-1.8.5-.5 1.2.7 2 1.5 1.7 1.8z"/><path d="M362.7 320.2c-.7 2 .5 3.6 2.5 3.3.9-.2 2.2.3 2.9 1.1.9 1.1.9 1.4-.1 1.4s-1 .3 0 1.5c.9 1.1 1.6 1.2 2.5.5.9-.7 1.6-.6 2.5.5 1 1.2.9 1.6-.2 2-1.9.7-1.9 3.3 0 4 .9.3 1.2 0 .9-.9-.3-.8.1-2 .9-2.7 1.1-.9 1.2-1.4.3-2-1-.6-1-1.1-.1-2.2s.8-1.3-.8-1.2c-1.1.1-2.3.4-2.6.8-1.1 1-2.6.8-1.9-.2.3-.5.1-1.2-.5-1.6-.6-.4-.7-1.1-.4-1.7.4-.7.2-.8-.4-.4-.7.4-1.2.2-1.2-.4 0-.6-.4-.9-.9-.5-.6.3-1.4-.2-1.9-1.1-.8-1.4-1-1.4-1.5-.2zM390 319.8c0 .4.9.8 2 .8s2-.4 2-.8-.9-.8-2-.8-2 .4-2 .8zM406 320.1c0 .6.7.9 1.5.5.8-.3 1.4 0 1.2.6-.1.6.4 1.3 1.2 1.6.8.2 1.1 0 .8-.5-.3-.5.3-.9 1.3-.9s1.7.3 1.5.6c-.2.4.9.7 2.5.7s2.7-.3 2.5-.7c-.2-.3.5-.6 1.5-.6s1.6.4 1.3.9c-.3.5 0 .7.8.5.8-.3 1.3-1.1 1.1-1.7-.2-.9.3-.9 1.9 0 2 1 2.1 1.2.5 2.1-1.7.9-1.3 2.8.5 2.8.6 0 .7-.4.4-1-.3-.6.1-.7 1-.4 1 .4 1.5.2 1.3-.6-.2-.7.4-1.5 1.2-1.7 1-.3 1.1-.2.3.4-.8.6-.8 1.2.1 2.5.7 1 1.7 1.4 2.1 1 .5-.4.5-.2.2.4-.4.7.5 2 2 2.9 2.4 1.6 2.6 1.6 2 0-.4-.9-.7-1.9-.7-2.1 0-.3-.5-.2-1.2.2-.7.5-.8.3-.3-.6.6-1 1.1-1 2 .4 1.2 1.5 1.3 1.5 1.9 0 .8-2.1.8-2.6-.2-2-.5.3-.9-.1-.9-.9s.4-1.5.9-1.5.7-.4.3-.9c-1.1-1.9 1.8-2.4 3.1-.6 1.2 1.6 1.1 2.1-.3 3.7-1.8 2-.4 2.5 1.5.6 1-1 1.5-1 2.2.2.5.8 1 1 1 .4 0-.5-.5-1.5-1.2-2.2-.7-.7-.9-1.2-.5-1.2s-.2-.9-1.3-2c-2.3-2.3-4.1-2.5-5.8-.8-1 1-1.5 1-2.2-.2-.7-1.1-1-1.1-1-.2 0 .7.6 1.5 1.3 1.8 1.5.5 1.9 3.3.5 3.5-2.1.4-2.8.4-2.5-.2.5-1.4-2.7-3.9-4.4-3.4-1.2.4-2.1.1-2.5-.9-.7-1.9-3.5-2.1-5.3-.4-1.1 1.1-1.4 1-1.8 0-.4-1-.8-1-1.9-.1-1.1.9-1.7.9-2.8 0-1.1-.9-1.5-.9-1.9.1-.4 1-.7 1.1-1.8 0-1.6-1.5-4.9-1.6-4.9-.1z"/><path d="M439.3 323c-.2 1.9.8 2.6 2 1.4.7-.7-.2-3.4-1.2-3.4-.4 0-.7.9-.8 2zM400.4 324.5c-1.3 1.3-2.4 2.1-2.4 1.8 0-.3-.6 0-1.3.6-.8.6-1.8.7-2.2.3-.5-.4-.5.1-.2 1.1.4 1 .7 2.1.7 2.3 0 .3.5.2 1-.1.6-.4.7-1.1.4-1.7-.5-.7-.2-.8.6-.3.9.5 2.3-.3 4.2-2.6 1.6-1.9 2.6-2.8 2.2-2-.5 1.1-.3 1.3 1 .8 1-.4 1.5-.3 1.1.3-1 1.6 1.1 1.2 2.5-.5.7-.8 1.1-1.5.9-1.6-4.8-.8-6.3-.6-8.5 1.6zM450.9 322.7c-.1.4-.1 1.2 0 1.7s-.5.6-1.3.3c-1-.4-2 .2-2.7 1.4-.8 1.6-1.3 1.8-2.5.9-1.1-1-1.5-.9-2 .4-.5 1.2-1 1.4-1.9.6-.9-.7-1.5-.3-2.4 1.7-.8 1.8-1.5 2.3-2.3 1.5-1.2-1.2-3.8-.4-5.5 1.7-1.5 1.9-1.7 4.1-.3 4.1.6 0 .9-.6.8-1.3-.2-.6.3-1.1 1.1-.9.9.2 1.1-.3.7-1.3-.3-.9-.2-1.4.3-1 .5.3 1.1 0 1.3-.7.3-.7.7-.5 1.1.6.4 1 .3 1.5-.3 1.1-.6-.4-.8.3-.6 1.7.3 1.3.5 2.7.5 3.1.1.5.6.5 1.1.2.6-.4.8-1 .5-1.5-.3-.5 0-2 .6-3.3 1.1-2.5 1.2-2.5 3.2-.6 2.4 2.2 4.5 2.6 2.8.6-.6-.8-.7-1.7-.3-2.1.4-.5-.2-.6-1.2-.4-1 .1-2.1-.2-2.3-.9-.3-.8.5-1.1 2.6-.8 2 .2 2.9 0 2.5-.7-.4-.5.4-.4 1.7.2 3.1 1.6 3.9 2.5 1.6 1.7-1.1-.4-1.6-.3-1.2.3.3.5-.1.7-.9.4-1.7-.6-1.6 2.3.1 3.4.5.4 1.6 1.8 2.3 3.1 1 1.9 1 2.2-.2 1.6-.7-.4-.2.2 1.1 1.3 2.1 1.7 2.2 2 .6 2.5-.9.4-2.1.5-2.6.1-.5-.3-.9 0-.9.5 0 .6.4 1.1.9 1.1s1.7.3 2.7.7c1.3.5 1.5.3.9-.7-.5-.8-.4-1.1.2-.7.6.4 1.4 0 1.7-.9.8-2.2.8-2.6-.3-1.9-1.2.7-3.4-3.2-2.6-4.5.3-.5-.4-1.4-1.7-2.1-2.1-1.1-2.1-1.2-.3-2.5 2.3-1.7 3.6-1.8 3.3-.2-.2.7.4 1.3 1.2 1.3.8 0 1.4-.6 1.2-1.4-.2-.8.3-1.1 1-.8 1 .3 1.3-.6 1.3-3.3 0-2.7-.3-3.6-1.3-3.3-.7.3-1.2 0-1-.7.2-.7-.3-1.5-.9-1.7-.7-.3-1.4-.1-1.4.4zm2.5 5.4c0 1.4-.5 2.4-1.4 2.4-1.2 0-1.7-2.1-1.1-5.1.3-1.7 2.5.6 2.5 2.7zm-4.4-.1c0 .5-.2 1-.4 1-.3 0-.8-.5-1.1-1-.3-.6-.1-1 .4-1 .6 0 1.1.4 1.1 1zM268.9 324.7c-1.3 1.6-1.2 1.7.4.4.9-.7 1.7-1.5 1.7-1.7 0-.8-.8-.3-2.1 1.3zM274.2 323.5c.5.5-.1 1.5-1.2 2.2-1.1.8-1.8 1.9-1.5 2.4.4.5-.5 1.4-1.9 2-1.4.7-2.3 1.6-2 2 .2.4-.5 1.3-1.6 1.9-1.6.8-1.9 1.5-1.1 2.4.6.7.8 1.6.4 1.9-.3.4-.1.7.6.7s.9.5.6 1c-.4.6-1.1.7-1.7.4-.6-.4-.6 0 .1 1.3.6 1.1.7 2.3.4 2.7-.3.3-.2.6.3.6s1.5-.9 2.2-2c.7-1.1.8-2 .4-2-1.3 0-1-3 .2-3 .6-.1 0-.7-1.4-1.6-2.2-1.3-2.2-1.4-.3-.9 1.2.3 2.4.1 2.8-.4.4-.7-.1-.9-1.2-.5-1 .3-.5-.2 1-1.1 1.6-.9 2.5-2.1 2.1-2.7-.5-.7-.2-.8.7-.3.8.5 1.1.5.7 0-.8-.8 2-3.4 3.7-3.5.6 0 .3.5-.5 1s-1 1-.4 1c.5 0 1.9.7 3 1.5 1.9 1.5 1.9 1.5 0 .8-1.9-.6-1.9-.5-.3 1.7 1.7 2.4 5.1 3.8 4.4 1.7-.3-.7-1-1.1-1.6-.9-.9.2-.9-.3-.1-1.8.6-1.1 1.6-1.8 2.1-1.4.7.4.7-.1 0-1.5-.7-1.1-1.4-2.1-1.7-2.1-.3 0-.3.4.1.9.3.5.1 1.2-.4 1.5-1.3.8-4.2-.4-3.5-1.5.3-.5-.2-1.2-1-1.5-.9-.3-1.4-1-1.1-1.4.3-.5 0-1.2-.7-1.6-.7-.4-1-.4-.6.1zM286.7 324.3c-.3.8-.1 2 .4 2.8.8 1.2 1 1.2 1.8 0 1-1.5.4-4.1-.9-4.1-.4 0-1 .6-1.3 1.3zM318.5 324c.6.9-.8 1.4-2.7 1.1-.5 0-.8.4-.8 1 0 .5-.4.8-.8.5-1.2-.7-3.8 1.2-2.9 2.1.5.4 1.2.1 1.7-.7.7-1.1 1-1.1 1-.2 0 .8 1 .5 3-.9 1.6-1.3 3.3-2 3.7-1.6.3.4.1.7-.6.7s-.9.5-.6 1c.4.6 1.1.7 1.7.4.7-.5.8-.2.3.6-.5.7-.4 1.1.1.8.5-.3 1.8.3 2.9 1.4 1.4 1.3 1.5 1.7.4 1.3-1-.4-1.6 0-1.6 1 0 1.8.2 1.8 2.9.4 1.6-.9 1.9-.8 1.3.2-.5.7-.4 1 .2.6.6-.4 1 .4.9 2 0 1.4.4 2.8 1 3 .7.2 1.1-.8 1-2.4-.1-1.9.4-2.8 1.4-2.8 1 0 1.5.9 1.4 2.8-.1 2 .3 2.7 1.5 2.5 1.7-.3 3.1-1.7 3.1-3.2 0-.5-.7-.3-1.5.4-1 .9-1.5.9-1.5.1 0-.6.5-1.1 1.1-1.1.6 0 .9-.6.6-1.3-.2-.6-1.2-1.1-2.1-.9-.9.2-1.5-.3-1.4-1 .2-.7-.4-1.3-1.2-1.3-.8 0-1.4.6-1.2 1.2.1.7-.2 1.3-.7 1.3-1.2 0-3.2-2.6-2.5-3.2.3-.3-.3-.5-1.3-.5-1 .1-1.7-.4-1.5-1.1.1-.8-.2-1.1-.7-.7-.6.3-1.5-.3-2-1.4-.6-1-1.8-2.1-2.6-2.5-.9-.3-1.3-.2-1 .4zM353.2 325c-.5.9-.7 2.2-.2 2.9.5.9 1 1 1.4.2.4-.6.1-1.1-.6-1.1-1 0-.9-.3.2-1 1-.6 2.1-.4 3.4.8 1.8 1.6 1.9 1.6 1.3-.1-.6-1.5-.4-1.6 1.3-.7 1.5.8 2 .8 2-.2 0-.9.3-.9.9.2.6.8.7 1.8.5 2.2-1 1.6.9.8 2.2-1 1.9-2.4 1.7-3.1-.6-2.7-1.1.2-2.2-.1-2.5-.6-.4-.5-1.2-.6-1.8-.2-1.7 1.1-3.7 1.3-3.7.4 0-1.4-2.7-.8-3.8.9z"/><path d="M408.7 325.2c-2.1 1.5-3.1 1.7-4.6.8-1.8-.9-2-.8-1.4.7.3 1 .3 1.5-.2 1.1-.4-.4-2.2.4-4 1.7-1.7 1.4-3.4 2.2-3.7 2-.3-.3-.8.1-1.2 1-.4 1.1-.2 1.5.6 1.2.7-.2 2.1.2 3.1 1.1 1 .9 1.7 1 1.7.4s-.4-1.4-1-1.7c-1.9-1.2-1-2.6 1.3-2 1.8.5 1.9.4.7-.5-1.3-1-1.2-1.1.4-.6 1.3.5 1.7.2 1.3-.8-.4-1 0-1.4 1.4-1.1 1.2.3 1.7 0 1.3-.7-.4-.7-.2-.8.5-.4.6.4.9 1.2.5 1.7-.3.5-1 .7-1.5.4-.5-.4-.9-.1-.9.4 0 1.5 2.1 1.3 4.3-.3 1.9-1.5 2.4-3.1.5-2-.7.5-.8.3-.3-.6.6-1 1.1-1 2 .3.7.9 1.5 1.4 1.9 1 .4-.4.4 0 0 1-.6 1.6-.5 1.6 2.4 0 2.1-1.2 2.7-2 1.9-2.5-1.8-1.1-2.9-1-2.1.3.4.8 0 .8-1.5 0-2.8-1.5-2.7-1.8.9-1.6 3.6.2 6.1 2.2 5.3 4.2-.4 1.1-.2 1.4.5.9.7-.4 1-.2.6.7-.3.8.2 1.4 1.1 1.4 1.8 0 1.8-.2.4-3-.7-1.2-.8-1.9-.4-1.5.4.4 1.3 0 2-.9.9-1.3 1.4-1.3 2-.3.5.9.4 1.1-.3.6-.7-.4-1.2-.1-1.2.8s.3 1.6.8 1.5c1.3-.2 5.2 1.3 5.2 2 0 .4-.7.8-1.5.8s-1.5-.5-1.5-1.1c0-.6-.5-.4-1 .4-1.2 1.9-1.3 3.3-.1 2.6.5-.3 1.6.7 2.5 2.2l1.7 2.7-2-2.4c-1.3-1.4-2.1-1.8-2.1-1 .1 1.6 2.5 5 3.5 5 .4 0 1.3-.8 2-1.8 1.3-1.6 1.4-1.6.8.7-.4 1.8-.3 2.2.5 1.5 1.7-1.6 2.2-6.2.6-6.2-.7 0-1.1.4-.8.8 1 1.7-2 2.1-3.3.4-1.4-2.1-1.7-3.6-.5-3.3.4.2 1.7-.7 2.9-1.9 1.7-1.7 1.9-2.4.9-3.2-.7-.6-1.7-.7-2.1-.3-.5.4-.5-.1-.2-1.1.6-1.5.4-1.6-1.3-.7-1.6.9-2.7.7-5.1-1.1-2.3-1.6-3.3-1.9-4.2-1-.6.6-1.8 1.1-2.6 1.1-1.2 0-1.3-.2-.3-.8.8-.6.3-.9-1.6-.9-1.6 0-4.1.9-5.5 1.9zm12.8-.3c.7 1.2-1.2 2.4-2.5 1.6-1.1-.7-.4-2.5 1-2.5.5 0 1.1.4 1.5.9zm8.9 3.4c.4-.4.4.1 0 1.1-.5 1.4-.9 1.5-1.5.4-.5-.7-.9-.9-.9-.5 0 .5-.5.5-1 .2-.6-.4-.8-1.1-.4-1.6.4-.6 1-.6 1.8 0 .7.6 1.6.8 2 .4zM134.5 327.1c-2.2 1.8-2.9 2-3.6.8-.6-1-.9-1.1-.9-.1 0 .7.7 1.5 1.5 1.8.8.4 1.3 1 1 1.4-.3.5 0 1.2.6 1.6.8.4.9.3.5-.4s-.2-1.2.3-1.2c.6 0 1-.3 1-.8-.4-2.6.1-3.4 1.6-2.2.9.7 1.9.9 2.3.5.4-.4.1-1-.6-1.2-.6-.3-1-.9-.6-1.4.9-1.5-.1-1-3.1 1.2zM305.8 327c-1.6.9-2.5 2-2.2 2.3.4.4-.1.9-1 1.3-.9.3-1.4 1-1.1 1.5.7 1-3.4 3.3-4.3 2.5-.3-.4-1.7.4-3 1.6-1.4 1.3-2.2 1.8-1.8 1.1.3-.6.2-1.4-.4-1.8-1.4-.8-1.3-2.6.1-2.3.6.2 1.4-.4 1.6-1.2.4-1.3.3-1.3-.6 0-1 1.3-1.1 1.3-1.2 0-.1-.8-.3-2-.4-2.5-.2-.6-.3-1.4-.4-1.9 0-.5-.8-.3-1.6.4-1.2 1-1.8 1-3 0-.8-.7-1.6-.9-1.6-.4-.1.5-.2 1.3-.4 1.9-.1.5-.3 1.7-.4 2.5-.1 1.3-.2 1.3-1.2 0-.9-1.3-1-1.3-.6 0 .2.8 1 1.4 1.6 1.2 1.5-.3 1.4 1.5-.1 2.5-1.9 1.1-3.7 1.2-4.4.2-.3-.5-1-.6-1.6-.3-.7.5-.9.1-.5-.9.3-.9.2-1.9-.4-2.2-.5-.4-.7-1-.4-1.5.3-.4-.3-1.1-1.2-1.4-1-.4-1.4-.4-1 0 .4.4-.2 1.4-1.3 2.1-1.1.8-1.8 1.8-1.5 2.3.3.4-.1 1-.8 1.3-1.5.6-2.1 5.7-.6 5.7.5 0 .8-.4.5-.9-.3-.5.1-1.4.8-2.1.8-.6 1.3-2 1.1-3-.3-1.4.1-1.7 1.2-1.3 1.1.4 1.4.2.9-.5-.5-.8-.1-1 1-.5 1.1.4 1.3.8.6 1.1-.7.2-1 .8-.7 1.3.4.5-.2.6-1.2.2-1-.3-1.5-.3-1.1.2.4.4.3 1.4-.3 2.2-1.4 1.6.2 1.8 1.8.2.8-.8 1.7-.7 3.2.3 1.8 1.1 2.3 1.1 3.1-.2.7-1.1 1-1.1 1-.2 0 .7.4 1 1 .7.5-.3.7 0 .4.8-.3.8.2 1.4 1.1 1.4 1.8 0 1.8-.2.4-2.9-.9-1.6-.8-1.9.2-1.3.7.5 1 .4.6-.2-.3-.5.7-.9 2.3-.9 1.6 0 2.6.4 2.3.9-.4.6-.1.7.6.2 1-.6 1.1-.3.2 1.3-.6 1.1-1.1 2.3-1.1 2.6 0 1.2 2.6 0 4-1.9 1.7-2.3 4.2-3.1 3.4-1.2-.3.8.4 1.3 1.7 1.4 1.7.2 1.8-.1.8-1.3-.6-.8-.9-1.7-.5-2.1.3-.3.6 0 .7.8 0 .8.5.3 1-1.1.6-1.3 1.3-2 1.7-1.5 1 1.4 3.2 1.7 3.2.5 0-.5-.6-1.3-1.4-1.7-1-.6-.9-1.3.9-3.1 2-2.1 2.3-2.2 3.5-.7 1.1 1.3 1.1 1.6 0 1.3-.7-.2-1.4.2-1.6.7-.3.7 1.5 1.1 4.6 1.1 4.6 0 5.4-.5 5.1-3.1-.1-.6.8.2 2 1.7 2.3 3.1 3.6 3.6 3.6 1.3 0-.8-.2-1.3-.5-1-.2.2-1.2-.6-2.2-1.8-1.7-2.1-1.9-2.1-3.7-.4-1.1.9-2.3 1.4-2.6 1-.4-.3-.7-.1-.7.5 0 2.1-1.6 1.3-3.1-1.7-1.4-2.8-1.4-2.8-4.1-1.1zm-15.3 5c0 .7-1 1.4-2.3 1.5-2.4.2-3.7-.9-2.8-2.3.8-1.4 5.1-.7 5.1.8zM355.4 326.6c.3.7-.1 1.7-.9 2.4s-1.5.9-1.5.4c-.1-.5-.9.1-2 1.4-2.6 3.1-3 3.1-4.6-.1-.8-1.5-1.9-2.5-2.4-2.2-1.2.7-1.3 2.6-.2 2.4 1.8-.3 2.4.2 1.4 1.4-.9 1-.6 1.7.8 2.9 1 .9 2.1 1.4 2.4 1.1.3-.3-.2-1.1-1-1.8-1.5-1.1-1.5-1.2 0-1.2.9 0 1.6.4 1.6.8s.8.6 1.8.4c.9-.2 1.9-.4 2.2-.4.3-.1-.2-.5-1-1.1-.8-.5-1.1-1.2-.7-1.7.5-.4 1.2-.1 1.7.7.7 1.1 1 1.2 1 .2 0-.7.4-1.1.9-.7.5.3 1.3 0 1.7-.6.4-.8.3-.9-.4-.5s-1.2.2-1.2-.4c0-.7.6-1 1.3-.7.6.2 1.1 1.2.9 2.1-.3 1.6-.2 1.6 2.2.1 2.6-1.7 5.2-1.2 4 .7-.5.8-.1.9 1 .5 1-.4 1.5-.3 1.1.3-.4.6.3.8 1.7.6 1.3-.3 2.6-.5 3.1-.5.4-.1.6-.4.6-.9-.3-2 .2-3.2 1.3-2.6.7.5.8.3.3-.6-.6-1-1.2-.7-2.4.9-1.1 1.4-2.3 2-3.4 1.5-1.7-.6-1.4-2.4.4-2.4.6 0 .7.4.4 1-.3.5-.1 1 .4 1 1.5 0 1.4-1.5-.3-2.9-1-.9-1.5-.8-2 .4-.7 1.9-2 1.9-3.9.1-1.1-1.1-1.7-1.2-2.6-.3-.8.8-1.5.6-2.7-.9-.8-1-1.3-1.4-1-.8z"/><path d="M125 328.6c-1.8 1.1-2 1.4-.5 1 1.7-.5 1.6-.3-.5 1.4-1.4 1.1-3.2 1.8-4.1 1.6-1.1-.2-1.5.3-1.3 1.8.1 1.2.3 2.3.4 2.6.1.3.2.9.1 1.3-.1.5.3.6.8.3.5-.4 1.2-.2 1.5.3.9 1.4-.4 4.2-1.6 3.5-.6-.4-.5.4.2 1.6 1 1.9 1 2.4-.3 3.2-.9.5-1.4 1.5-1.1 2.2.3.8-.5 2.1-1.8 3-1.2.9-1.7 1.6-1.1 1.6 1.2 0 1.2 2.4 0 3.6-.3.4-.2 1.5.4 2.5.7 1.4.6 1.9-.3 1.9-.6 0-.4.6.7 1.3 1.4 1.1 1.5 1.6.5 2.2-.9.6-1.1.4-.5-.5.6-.9.4-1.1-.4-.5-.9.5-1 1-.2 1.8.7.7 1.5.6 2.6-.3 1.6-1.3 1.5-1.5-.1-2.7-1-.8-1.3-1.3-.5-1.3.7 0 .9-.5.6-1-.4-.6-.2-1.7.4-2.4.9-1 .7-1.5-.6-2.1-1.7-.6-1.7-.7-.1-1.6 1-.5 1.5-1.6 1.2-2.4-.4-.8-.1-1.5.7-1.5.7 0 .9-.3.6-.6-1.2-1.2 1.3-4.3 2.9-3.7 1.5.5 1.5.3-.1-2-1.7-2.7-1.3-5.3.7-4.1.8.5.9.1.5-1-.5-1.1-.3-1.5.5-1s.9.2.5-.9.2-2.2 1.6-3.2c1.5-1.1 1.7-1.5.6-1.5-.8 0-2 .5-2.7 1.2-.9.9-1.5.9-2.4-.1-1.1-1-.9-1.1.7-.6 1.7.6 1.8.5.5-.5s-1.2-1.1.3-.6c1 .3 1.6.2 1.3-.3-.3-.5.1-1.2 1-1.5 1.7-.7 3.6.1 3.1 1.2-.2.4.7 1.7 2 2.9s2.3 1.7 2.3 1c0-.8.4-.7 1.1.3.8 1.2.9 1 .4-.8-.5-1.6-.3-2.2.7-2 .7.2 1.2-.3 1.1-1-.2-.6.2-1.2.7-1.2.5 0 1 .4 1 .9 0 .6-.4 1.3-1 1.6-.5.3-1 1.4-1 2.3 0 1.3.3 1.2 1.5-.5.9-1.3 2.2-2 3-1.6 1.1.4 1.3.1.9-1.1-.3-.8-.9-1.5-1.2-1.4-.4.1-1.8-.4-3-1.1-1.3-.7-2.6-1-3-.7-.3.3 0 .6.6.6.7 0 .5.7-.5 1.9-2 2.4-3.5 1.9-5.1-1.9-1.6-3.4-1.8-3.5-5.2-1.4zm-1.6 7.7c.4-.4.4 0 0 1-.7 1.9-2.4 1.3-2.4-.9 0-.9-.5-1.2-1.2-.8-.7.5-.8.3-.3-.6.6-1 1.1-1 2 .3.7.9 1.5 1.4 1.9 1z"/><path d="M142.8 328.1c-.3.8-.1 2.4.3 3.6.8 2.3-.3 3.9-2 2.8-.6-.3-1.5.4-2.1 1.5-.6 1.1-1.5 1.8-2.1 1.5-1.2-.8-1.1.6.1 2.5.7 1.1 1 1.1 1 .2 0-.7.4-1.1.9-.7.5.3 1.3 0 1.7-.6.4-.8.3-.9-.4-.5s-1.2.2-1.2-.3c0-.6.6-1.2 1.3-1.3.6 0 1.7-.2 2.2-.2 2.6-.3 3.4-1.7 2.5-4.1-.9-2.5-.8-2.7 1.9-2.9.8-.1 1.6-.6 1.8-1.3.3-.7-.4-1.1-1.6-1-1.2.1-2.1.6-2.1 1.2 0 .5-.4.4-.9-.4-.7-1.1-.9-1.1-1.3 0zM168.5 328c-.3.6.1 1.3.9 1.6 1.3.5 1.1 1-1 2.7-2.4 1.8-3.9 2.3-8.1 2.6-2.7.2-1.2 1.8 1.7 1.9 1.7 0 3-.3 3-.9 0-.5 1-.8 2.2-.6 1.4.1 2.6-.6 3.6-2.3 1.1-2.1 1.3-2.2.9-.4-.2 1.2 0 2.8.4 3.7.6 1 .5 1.8-.1 2.2-.6.4-1 .3-.9-.2.3-1.8-.1-3.6-.8-2.9-1.3 1.3-1.1 3.5.5 4.1 2 .7 3.3-1.4 2.2-3.5-.5-.9-.5-2.2 0-3 .6-1 .2-1.8-1.1-2.8-1.1-.7-1.7-1.8-1.4-2.3.4-.5.2-.9-.4-.9-.5 0-1.3.5-1.6 1zm1.5 4.4c0 .2-.8 1-1.7 1.7-1.6 1.3-1.7 1.2-.4-.4 1.3-1.6 2.1-2.1 2.1-1.3zM390.7 328.2c-.5 1.7.3 4.8 1.3 4.8s1.8-3.1 1.3-4.8c-.3-.6-.8-1.2-1.3-1.2s-1 .6-1.3 1.2zM416.2 328.7c-1 .4-1 .8 0 2.1 1.1 1.3 1 1.4-.9.4-1.6-.9-2.4-.9-2.9-.1-.5.9-1.1.6-2.1-.6-.7-1.1-1.3-1.3-1.3-.6 0 .7-.5.9-1 .6-.6-.3-1.3 0-1.6.8-.6 1.5-3.4 1.9-3.4.4 0-.5-.7-.4-1.5.3-.8.6-2 .9-2.7.5-.7-.4-.4.1.6.9 2.1 1.7 4.1 2.2 3.2.8-.3-.5.1-.9.9-.9s1.5.4 1.5.9.4.7.9.3c.6-.3 1.4.3 2 1.2.9 1.6 1 1.6 1.1.1 0-.9-.4-2-1-2.3-.5-.3-1-1.2-.9-1.8 0-.8.3-.7.6.2.4.9.7 1 1.2.2.5-.7 1.2-.2 1.9 1.4.7 1.5.8 2.4.3 2.1-.5-.3-1.2.1-1.5 1-.3.8-1 1.2-1.6.9-.5-.3-1-.1-1 .4 0 1.5 2.3 1.4 3.8-.1.9-.9 1.5-.9 2.4 0 .7.7 1.9 1.2 2.7 1.2 1.1 0 .9-.4-.6-1.5-1.4-1-2-2.1-1.6-3.2.4-1.1.3-1.4-.5-.9-.8.5-1 .2-.5-.9.5-1.3.7-1.4 1.4-.3.5.7.9.9.9.5s1-.2 2.2.4l2.1 1.1-2.2 1.3c-2 1-2.1 1.3-.6 1.8 2.4 1 2.7.9 1.9-.5-.4-.6-.3-.8.3-.5.6.4 1.4 0 1.7-.9.8-2.2.8-2.6-.3-1.9-1.2.7-3.4-3.2-2.6-4.5.7-1.1.6-1.1-1.3-.3zM340 330c-.8.5-1.1 1-.6 1 .5 0 .4.6-.2 1.2-.8 1.1-.9 2.4-.3 7 .2 1 3.5.2 3.9-1 .2-.7-.5-.9-1.7-.7-1.9.3-2 .1-1-1.7.8-1.5.8-1.9 0-1.4-.6.4-1.1.2-1.1-.4 0-.7.6-1 1.3-.7.6.2 1.1 1.3 1 2.3-.1 1 0 1.3.3.6.3-.6 1-1.2 1.5-1.2.6 0 .8.4.5.9-.3.5.1 1.2.9 1.5.8.3 1.4 1.1 1.3 1.7-.2.6.3 1.4 1 1.6.7.3 1.1.1 1-.4-.2-.4.2-.8.7-.8.6 0 .9.3.8.7-.2.4.6.6 1.7.5 2.4-.2 2.6-1.2.5-2.1-.9-.3-1.2-1.2-.8-2.3.7-1.7.6-1.7-1.1-.1-2.2 2.2-2.1 2.2-4.5-.4-1.7-1.7-1.8-2.4-.8-3.7.9-1.1.9-1.3 0-.8-.6.4-1.5.1-2-.7-.6-1.1-1.3-1.2-2.3-.6z"/><path d="M422.6 331.1c.9 1.5-2.6 6.9-5.6 8.4-3.5 1.8-4.1 1.9-3.7.2.1-.6-.5-1.2-1.3-1.2s-1.4.6-1.2 1.2c.3 1.6-.3 1.6-2.9.2-1.4-.7-1.8-1.6-1.4-3.2.5-1.7.4-1.9-.4-.7-.8 1.1-1.1 1.2-1.1.2 0-2.4-2.3-.7-2.6 1.9-.1 1.7.3 2.6 1.2 2.6.9 0 1.3-.6 1-1.4-.4-.8-.1-1.1.5-.8.6.4.8 1.3.5 2-.3.9.2 1.1 1.7.8 2-.4 2-.3.4.7-1.4.9-2.2.9-3.3 0-.8-.7-1.4-.8-1.4-.2 0 1.9 2.6 3.2 3.9 1.9.9-.9 1.4-.9 2.1.3.9 1.4 1.1 1.3 1.4-.9.2-1.6 1.4-2.3 2.7-1.5.9.5.7 1.1-.6 2.1-1.5 1-1.5 1.3-.4 1.3.8 0 2.1-.6 2.8-1.3 1.1-1 1.3-1 .7 0-.4.7-.3 1.3.3 1.3.5 0 1.5-1.4 2.3-3 .7-1.7 1.6-3 2-3 .9 0 .6 2.3-.4 3-.4.3.1 1.1 1.2 1.8 1.6 1 1.8.9 1.7-.8-.1-1.1-.4-2-.7-2-.4 0-.7-.7-.7-1.5 0-1.2.3-1.2 1.7.3 1.2 1.2 1.4 1.9.6 2.5-.6.5-.1.6 1.1.2 1.6-.4 2.5 0 3.3 1.5 1.5 2.9 3.2 2.5 1.8-.5-.6-1.3-1.4-2.4-1.7-2.3-2 .2-3.1-.4-2.8-1.5.1-.6-.3-1.1-1-1-1.2.2-1.2-5.5 0-7.4.3-.5 0-1-.8-1s-1.2.4-.9.8zm-5.1 9.9c-.3.5-1.2 1-1.8 1-.7 0-.6-.4.3-1 1.9-1.2 2.3-1.2 1.5 0zM150.5 331.7c.5 1.1-.5 1.7-2.6 1.5-.3-.1-1.2 1-1.9 2.4-1 1.8-1.9 2.3-3.3 1.8-1.1-.3-1.7-.2-1.4.3.3.5.3 1.3-.1 1.8-.9 1.3-5.6 3.9-4.9 2.8.3-.4-.1-1.9-.8-3.3l-1.3-2.5.1 2.7c.1 1.4.5 2.4.9 2.2.3-.2.4.4.1 1.4-.3 1.2.2 1.8 1.6 1.9 1.1.1 2-.1 1.8-.5-.1-.4.1-.8.5-1 .4-.1 1.9-1.4 3.4-2.9 2.2-2.2 2.8-2.4 3.8-1.2 1.6 2 3.3 2.1 4 .3.4-1.1.2-1.5-.8-1.1-.8.3-2-.2-2.8-1.1-.9-1.1-1-1.4 0-.8.6.4 1.2.3 1.2-.3s1-1.5 2.1-2.2c1.2-.6 1.9-.7 1.5-.1-.3.5.1 1.5.9 2.2 1.2 1 1.5 1 1.5 0s.3-1 1.5 0c.8.6 1.3 1.7 1.2 2.2-.1.6.4 1.3 1.2 1.6.9.3 1.1 0 .6-.9-.5-.8.1-.6 1.2.4 1.4 1.2 2.3 1.5 2.8.8.3-.6.1-1.1-.5-1.1s-.8-.5-.4-1.2c.4-.6.3-.8-.4-.5-1.5 1-4.3-.3-3.5-1.7.3-.6.3-.8-.2-.4-.4.4-1.4.3-2.2-.3-.7-.6-1.3-.8-1.3-.4s-.9-.3-2.1-1.6c-1.1-1.3-1.8-1.8-1.4-1.2zM305.8 332.2c1.7 2.1.8 3.8-1.7 3.3-2.3-.4-3.6 2.1-1.5 2.9.7.3 1.3 0 1.1-.6-.1-.7.4-1.3 1.1-1.4.6-.1 1.4-.3 1.7-.4.3-.1 1-.4 1.5-.5.6-.1 1.2-.4 1.5-.5 1.6-.7 5-.2 4.8.8-.2.7.4 1.2 1.3 1.2.8 0 1.3-.4 1-.8-.2-.4-.1-1.4.5-2.2.5-1 .9-1.1.9-.3 0 .7.6 1.1 1.3.9.6-.1.9-.1.4.1-.4.3-.4.9-.1 1.5.4.6 1 .5 1.5-.3.8-1.2 1.1-1.1 1.9.1.8 1.2 1.1 1.3 1.9.1.7-1.1.9-1.1 1.3 0 .3.8.9 1.1 1.3.6 1.2-1 .1-1.8-2.9-2.1-1.5-.2-3.5-1.1-4.5-2-1.1-1-2.2-1.3-2.5-.8-.3.6-1.4.9-2.4.8-.9-.2-2 .2-2.4.8-.6.7-1 .8-1.5.1-.5-.6-1.5-1-2.3-1-.8.1-2.2-.4-3-.9-1.3-1-1.3-.9-.2.6zM359.5 332.3c-1.1.9-1.5 1.9-1 2.7.6 1 1.1.9 2.1-.4.8-1.2 1.4-1.4 1.9-.6.8 1.3-1.4 4.2-2.6 3.4-.5-.3-.9 0-.9.5 0 1.5 2.3 1.4 3.8-.1.9-.9 1.5-.9 2.4 0 1.5 1.5 3.8 1.6 3.8.1 0-.5-.4-.8-.9-.4-.5.3-1.2.1-1.5-.4-.4-.5-.1-1.3.5-1.7.7-.4.9-.3.6.3-.4.6.9.9 3.3.9 2.1-.1 3.6.2 3.4.6-.3.4.3.5 1.3.2s.7.1-.6.9c-1.3.8-1.9 1.7-1.4 2 .6.4 1.9 0 2.9-.8 1.9-1.5 1.9-1.5 0-3-1.1-.8-1.5-1.5-1-1.5s1-.9 1.1-2.1c.1-1.2-.3-1.9-1-1.6-.7.2-1.2 1.2-1.2 2.3 0 1.2-.6 1.8-1.5 1.6-.8-.2-3.1-.5-5.1-.6-4.1-.3-6.2-1.3-5.4-2.7.9-1.3-.8-1.1-3 .4z"/><path d="M387 332c0 .5-.6.9-1.2.7-.7-.1-1.2.6-1 1.5.3 2-1.4 3.3-2.3 1.7-.5-.6-2 .4-4.1 2.7-3.2 3.5-3.4 3.9-1.8 5.3 1.5 1.5 1.6 1.4 1-.6-.4-1.2-.2-2.4.5-2.9.8-.5 1-.2.7.7-.4 1.1.1 1.5 1.8 1.5 1.3 0 2.3-.5 2.1-1.1-.2-.5-.9-1-1.5-1-.7 0-1.2-.3-1.2-.8v-1.4c0-.4.5-.2 1.2.5.9.9 1.4.7 2.4-.6.8-.9 1.4-1.2 1.4-.7 0 .6.9 1.1 2.1 1.2 1.7.2 1.8-.1.9-1.2-.7-.8-1.7-1.2-2.4-.8-.6.3-.3-.3.7-1.5 1.1-1.1 2.5-1.8 3.4-1.5.8.3 1.1.9.6 1.2-1.4 1-1.5 3.3-.1 2.8.7-.2 1.2-1 1.1-1.6-.4-1.6.5-1.4 2.9.9 1.7 1.5 2.4 1.7 3 .8.6-1 .8-.9.8.2 0 1.2.2 1.2.9.1.5-.8 1.1-.9 1.5-.3.3.6 0 1.3-.6 1.6-1 .5-1 .7 0 1.2.6.3 1.2 1 1.2 1.5 0 .6-.4.7-1 .4-1.7-1.1-1.1 1.1.8 2.8 1.9 1.7 4.2 2.3 4.2 1 0-.3-.8-1.5-1.7-2.5-1.5-1.6-2-3.3-2.2-7.7-.1-1-.4-1.1-1.5-.2-1 .9-1.6.8-2.5-.3-.7-.8-1.9-1.2-2.6-1-.7.3-2.2-.3-3.3-1.3-2.2-2.1-4.2-2.7-4.2-1.3zm16.1 12.7c1.3 1.6 1.2 1.7-.3.4-1.7-1.3-2.2-2.1-1.4-2.1.2 0 1 .8 1.7 1.7z"/><path d="M352.6 335.2c-1.4 2-1.4 2.3-.1 3.1 1 .5 1.4 1.6 1 3-.5 1.9-.5 2 .5.4.6-.9 1.6-1.4 2.2-1.1.8.5.9.1.5-1s-.3-1.5.4-1.1c.6.4.8 1.3.5 2-.3.9.2 1.1 1.7.8 2-.4 2-.3.4.7-1.4.9-2.2.9-3.3 0-.8-.7-1.4-.8-1.4-.2 0 1.9 2.6 3.2 3.9 1.9.9-.9 1.4-.9 2.1.3.9 1.4 1.1 1.3 1.4-.9.2-1.6 1.4-2.3 2.7-1.5.9.5.7 1.1-.6 2.1-2.9 2 0 1.6 4-.7 4.1-2.3 4.5-2.4 4.5-.9 0 .5-.4.8-.8.5-.5-.3-.9.1-.9.9 0 1.8 1.4 2 1.9.3.3-.7.7-.5 1.1.6.4 1 .3 1.5-.3 1.1-.6-.3-1-.1-1 .5s-.5.8-1.2.4-.8-.3-.4.5c.4.6 1.2.9 1.7.6.5-.4.9-.1.9.6s.7.4 1.5-.7c.9-1 1.4-1.3 1.3-.5-.2.7.4 1.6 1.2 1.9.8.2 1.2.1.8-.3-.4-.5-.2-1.5.4-2.2.9-1.2.9-1.4-.3-1.3-2.7.4-3.6 0-4.6-2.3-.6-1.2-1.1-2.6-1.1-3.1-.1-2-2.5-2.3-4.3-.5-2.2 2.2-4 2.5-3.6.6.1-.6-.5-1.2-1.3-1.2s-1.4.6-1.2 1.2c.1.7-.2 1.3-.6 1.3-1.4 0-4.4-2.5-4.1-3.5.4-1.7-1.3-4.5-2.7-4.5-.7 0-2 1-2.8 2.2zm4.5.5c.8 1 .9 1.4.2 1-.7-.4-1.6 0-2.1.9-.7 1.2-1.1 1.3-1.6.5-.4-.7-.2-1.8.4-2.6 1.5-1.8 1.5-1.9 3.1.2zm12.9 4.8c-.7.8-1.7 1.5-2.3 1.5-.6 0-.2-.7.9-1.5 2.5-1.9 3-1.9 1.4 0zM414.7 334.4c-.4 1-.1 1.3.8.9.8-.3 1.2-.9.9-1.4-.7-1.2-1.1-1.1-1.7.5zM438.6 334.5c.3.8 1.1 1.2 1.8.8.6-.4.6 0-.2.9-.9 1.1-1 1.8-.2 2.3.5.3 1 .2 1-.3s.6-.9 1.4-.9c.8 0 1.2.6.9 1.4-.3.8-.1 1.3.5 1.1.5-.2.9.1.9.7-.1.5-.5.9-.9.8-.4-.2-.6.6-.5 1.7.1 1.1.6 2 1.2 2s.7.3 0 .8c-1.7 1.2-1.7 3.5 0 2.8 1.1-.4 1.4-.2.9.6-.5.8-.2.9 1 .5 1-.4 2.1-.7 2.4-.7.4 0 0-.5-.8-1-.9-.6-1-1-.3-1 1.9 0 2.6 2 .9 2.6-.9.3-1.3 1-1 1.6.8 1.2 3.4-1 3.4-2.8 0-.8.4-1.4.8-1.4.5 0 .9.7.9 1.5s-.4 1.5-.9 1.5-.2.7.6 1.6c.9.8 1.3 2 1 2.6-.4.6-.1.8.7.6.8-.3 1.2-1.2 1-1.9-.2-.8-.4-2-.4-2.7 0-.6-.3-1.2-.7-1.2-.4 0-.7-.7-.7-1.5s.5-1.2 1-.8c.5.3.6-.4.2-1.8-.3-1.4-.3-1.9.2-1.2 1 1.4 3 .4 3.1-1.7 0-.8.3-2.7.5-4.2.3-2.1 0-2.6-1.4-2.5-1.1.1-1.9.6-2 1.2-.5 7-2.6 10.2-6.7 10.2-2.3 0-2.9-.4-2.8-2.1.1-1.5.7-2 2-1.8 1.8.3 1.8.2.2-1.3-.9-.9-1.4-2.1-1-2.6.3-.6 0-1.6-.6-2.5-1-1.1-1.6-1.2-2.6-.3-1 .8-1.4.8-1.4.1 0-.6-.9-1.6-2-2.2-1.6-.9-1.8-.8-1.4.5zm18.4 5.4c-.5 1-.6 2.1-.3 2.5.3.3.1.6-.5.6-.8 0-1-2.6-.3-5.8.1-.2.6 0 1.1.3.7.4.7 1.2 0 2.4zM127.7 335.1c-.9.6-1.5 1.4-1.2 1.9.8 1.3-1.4 5.2-2.6 4.5-1.3-.9-1.1.8.4 2.9.8 1.1 1.9 1.5 3.1 1 1.7-.7 1.7-.8-.5-1.9-2.2-1.2-2.2-1.3-.2-2.3 1.1-.6 2.3-.8 2.7-.5.3.3.6.1.6-.6 0-.8-.6-1.1-1.6-.7-1.4.5-1.5.4-.5-.8.9-1.1.9-1.5-.1-1.9-.8-.3-.9-.6-.2-.6.7-.1 2.2.8 3.5 2 1.3 1.1 1.8 1.7 1 1.3-1.1-.5-1.3-.3-.8 1 .5 1.1.3 1.5-.5 1s-.9-.2-.5.9-.2 2.2-1.6 3.2c-1.5 1.1-1.7 1.5-.6 1.5.8 0 2-.5 2.6-1.1 1.3-1.3 3.6-.2 2.7 1.3-.4.6.3.5 1.6-.2s2-.8 1.6-.1c-.4.5.2 1.5 1.3 2 2.6 1.4 2.8 1.4 2.8-.4 0-1-.6-1.4-1.6-1-1.1.4-1 0 .4-1.3 1.1-1.1 2.4-1.7 2.9-1.4.5.3.6-.1.1-.8-.5-.8-.4-1.1.3-.6.6.3 1.3.2 1.7-.4.3-.5.1-1-.6-1s-.9-.3-.6-.7c.4-.4 2.1.3 3.7 1.6 1.7 1.2 3 1.8 3 1.4 0-1.2-1.6-3.5-2.4-3.4-2 .3-2.6 0-2-1 .5-.8.1-.8-1.4 0-1.1.6-2.2 1.8-2.6 2.6-.3.9-1.1 1.3-1.6 1-.6-.4-.9-.1-.8.6.5 2.1-4.2 1.9-5.3-.3-.5-1-.7-2.3-.4-2.8.7-1.1-2.1-7-3.3-7-.4 0-1.5.5-2.5 1.1zM387.5 334.9c-.3.5-.2 1.2.3 1.5.5.3.9-.1.9-.9 0-1.7-.3-1.9-1.2-.6z"/><path d="M148.6 336.6c-.3.8-.2 1.3.3.9.5-.3 1.7-.2 2.6.1 1.1.5 1.3.9.5 1.4-.6.4-1.2 2-1.4 3.6-.2 1.6-.4 3.1-.5 3.3 0 .2-1-.4-2.2-1.5-2.1-1.9-2.1-1.8-3.9.3-1 1.2-2 2-2.2 1.8-.3-.3-.5.2-.5 1 0 2.3 1.3 1.8 3.6-1.3 1.2-1.5 2.1-2.3 2-1.7-.3 2.6.5 3.1 5.1 3.1 3 0 4.9-.4 4.7-1.1-.5-1.3-3-1.4-3.9-.1-.4.6-1 .7-1.5.3-.4-.5-.1-1.2.7-1.8 1.3-.8 1.3-1 0-1.9-1.1-.7-1.1-1-.2-1 .7 0 1.1-.4.8-.8-.2-.4.4-.8 1.4-.8 1.4 0 1.6.4.9 1.7-1.3 2.6-1.1 3.3.6 1.9.8-.7 1.2-1.7.9-2.2-.4-.6.4-.5 1.6.2 2.3 1.2 3.6.8 2.6-.9-.4-.6-1.3-.8-2-.5-.8.3-1.7 0-2.1-.5-.3-.6-1.2-.8-1.8-.4-.7.4-.5-.2.3-1.2 1.4-1.7 1.3-1.8-.2-1.2-1 .3-2.4 0-3.2-.8-1.8-1.9-2.2-1.9-3 .1zM309.4 336.2c-.3.5-.9.6-1.4.3-.5-.3-1.1-.1-1.5.5-.4.6-1.1.8-1.6.5-.5-.3-.6.1-.3 1 .5 1.1 1 1.3 1.9.5.6-.5 1.5-.7 1.8-.3.4.3.7.1.7-.5 0-.7.9-.3 2 .8 1.2 1.2 2.6 1.8 3.2 1.4.7-.4.2-1.2-1.3-2.1-1.3-.8-1.7-1.2-.8-1 .9.3 1.6 0 1.6-.7 0-1.3-3.6-1.6-4.3-.4z"/><path d="M317.3 335.7c.4.6 0 1.6-1 2.2-1 .6-1.4 1.1-1 1.1.5 0 .1 1-.7 2.2-.9 1.2-1.6 2.7-1.6 3.3 0 .5.5.3 1-.5.6-1 1-1.1 1-.3 0 .7.4 1.3.8 1.3.5 0 .9-.7.9-1.5s-.4-1.2-.9-.9c-.4.3-.8 0-.8-.5 0-1.4.6-1.4 3 .1 1.6 1.1 2.2.9 3.4-.7 1.7-2.3 1.5-2.8-.8-1.9-.9.3-1.3 1.1-.9 1.8.4.6 0 .5-.9-.2-.9-.8-1.4-2-1.1-2.9.3-.9.8-1.1 1.2-.5.3.6 1.5 1 2.6.9 1.2-.1 1.9.3 1.7 1.2-.2.9.3 1.1 1.3.7.9-.3 1.3-.2 1 .4-.9 1.5 1.1 1.2 2.4-.3 1.3-1.7.4-2.8-1.7-2-.8.4-1.3.2-.9-.3.3-.6-.6-.9-2.1-.9-1.5.1-3.6-.6-4.6-1.4-1.1-.9-1.6-1.1-1.3-.4zM437 336c0 .5.5 1 1.1 1 .5 0 .7-.5.4-1-.3-.6-.8-1-1.1-1-.2 0-.4.4-.4 1zM164.5 337.6c-1 .8-1.5 1.4-1.1 1.4.4 0 0 1-.9 2.2-.8 1.3-2.4 2.3-3.5 2.3s-1.9.4-1.7 1c.1.5.5.9 1 .7.4-.1.7.3.7.8 0 .6 1.1.3 2.4-.6 1.5-.9 2.2-2.1 1.9-3-.6-1.6 1.2-1.9 2.2-.4.3.5 1.1 1 1.7 1 .6 0 .4-.8-.5-1.8-1.1-1.2-1.3-2.2-.7-3.2.9-1.3 1-1.3 1.1 0 .1.8.1 1.8 0 2.2 0 .5.3.8.8.8s1.3.9 1.6 2.1c.7 2 .7 2 2.1.2 1.2-1.4 1.2-1.2-.1 1.4-1.9 4.1-1.9 4.6.3 3.2 1-.6 1.7-2.2 1.6-3.6-.1-2.5-2.1-4.6-3.6-3.7-.7.5-1.2-.9-1-2.8.2-1.4-2.5-1.5-4.3-.2zM286.9 336.7c0 .5-.2 2.1-.4 3.8-.3 2.2-.2 2.6.5 1.5.9-1.3 1.1-1.3 2 0 .7 1.1.8.7.5-1.5-.2-1.7-.4-3.3-.4-3.8-.1-.4-.5-.7-1.1-.7-.5 0-1 .3-1.1.7zM390.6 338.5c-1.3 1-1.6 2-1.1 3.2.5 1 .7 2.1.7 2.5-.1.5.4.8 1.1.8.7 0 1.3-.9 1.4-2 .1-1.1-.2-1.8-.7-1.5-.5.3-1.1.1-1.4-.4-.4-.5-.1-1.3.5-1.7.8-.4.9-.3.5.5-.8 1.3 1.5 1.1 2.5-.2.3-.5.9-.1 1.2.8.5 1 .3 1.4-.4.9-.7-.4-1-.1-.7.7.3.8 1.1 1.3 1.7 1.1.6-.1 1 .1 1 .5-.3 2 .2 3.4 1.1 2.8.6-.4.7.1.4 1.2-.5 1.5-.4 1.5.5.3.5-.8 1.3-1.1 1.8-.7.8.9-1.7 2.8-2.8 2.1-.4-.2-.7.5-.6 1.6.2 2.4.4 2.5 2.4.5.8-.8 1.9-1.3 2.4-1 .5.4.9.2.9-.3s.7-.9 1.5-.9 1.2.4.9.9c-.3.4-.1.8.5.8 1.5 0 2.3-1.8 1.1-2.5-.6-.4-.8-1.1-.4-1.6.3-.5 1-.7 1.5-.4.5.4.9.2.9-.4 0-2.3-2-1.9-3.4.6-1.7 3.3-1.8 3.3-5.6-1.1-3-3.3-3.9-5.3-2-4.1.6.3.7-.1.4-.9-.3-.9-1-1.4-1.4-1.1-.5.3-1.1.1-1.5-.4-.3-.6-1.3-.7-2.2-.4-1.1.4-1.4.3-.9-.5.9-1.5.5-1.5-1.8.3zM274.9 338.7c-.1.4-.1 1.1 0 1.5.2 1.2-1.4.9-2.8-.5-.7-.6-1.1-.7-.9-.2.2.6-1.2 2.5-3 4.3-3 2.9-3.3 3.7-2.8 7.3.4 2.8.2 3.8-.5 3.3-.8-.5-.9-.2-.2 1.1.6 1 .9 2.5.6 3.4-.2.9.5 2.1 1.5 2.8 1.7 1 1.9.8 1.9-1.8 0-2-.4-2.6-1.2-1.9-.7.6-1.1.3-1.2-1-.1-1.1.2-2.2.8-2.5.5-.3.6 0 .3.8s.2 1.4 1.1 1.4c1.9 0 1.9 0-.6-4.9-2.2-4.3-2.2-4.3 2.4-6.9 1-.5 1.5-1.4 1.2-1.9-.3-.5 0-1.2.7-1.6.7-.4 1-.4.6.1-1 1.1 1.1 3.5 3 3.5 1.3 0 1.3-.2-.3-1.3-1.3-1-1.5-1.6-.6-2.1 1.3-.8 2.5-.1 2.7 1.5.3 2.2.5 2.3 1.3 1 .8-1.2 1.2-1.2 2.4-.2 1.1.8 1.7.9 2.2.1.3-.6 1.1-.8 1.6-.5.5.3.6-.1.3-.9-.3-.9-1-1.3-1.5-1-.5.3-1.2-.2-1.5-1-.5-1.2-1.1-1.3-2.4-.6-2.4 1.3-3.1 1.3-2.7-.1.1-.6-.4-1.4-1-1.6-.7-.3-1.4-.1-1.4.4zm7.6 3.3c.8 1.3-.5 1.3-2.5 0-1.3-.8-1.3-1 .2-1 .9 0 2 .4 2.3 1zM294 340c-.6 1.1-1.5 1.8-1.9 1.5-.5-.3-1.2.3-1.5 1.2-.4 1-.4 1.4 0 1 .4-.4 1.2-.3 1.8.2.7.6 1.9.4 3.1-.6 1.9-1.5 1.9-1.5-.4-.8-1.6.5-2.1.4-1.7-.4.4-.6 1.4-1.1 2.2-1.1 1.6 0 1.9-1.6.5-2.5-.6-.3-1.5.4-2.1 1.5z"/><path d="M343.1 339.4c-.9 1.1-4.6 1.5-4.6.6 0-.1-.8-.3-1.8-.5-.9-.2-1.5.1-1.1.6.8 1.3-1 1.1-2.3-.2-.9-.9-1.9-.6-4.2 1-2.4 1.8-3.5 2-5.1 1.1-1.6-.9-1.9-.8-1.3.6.4 1 .2 1.5-.4 1.1-.5-.3-2.4.3-4.1 1.3-1.8 1.1-3.2 1.6-3.2 1.2 0-.4-.9-.8-2-.9-1.7-.1-1.8.1-.8 1.7.7 1.1 1.5 1.6 1.8 1.2.9-1.2 3-1.3 3-.1 0 .8.5.8 1.5-.1.8-.7 1.2-1.7.8-2.4-.4-.6.2-.4 1.2.4 1.7 1.4 1.8 1.3 1.2-.2-.4-1.3-.1-1.6 1.4-1.3 1.2.3 1.7 0 1.3-.7-.4-.7-.2-.8.5-.4.6.4.9 1.2.5 1.7-.3.5-1 .7-1.5.4-.5-.4-.9-.1-.9.4 0 1.4 2.7 1.4 3.5.1.4-.6 1.1-.8 1.6-.5.5.4.9-.1.9-1 0-1-.5-1.3-1.2-.9-.7.5-.8.3-.3-.6.6-1 1.1-1 2 .3.7.9 1.6 1.3 2 .9.4-.4.3.3-.4 1.5-1.4 2.8-1.4 3 .4 3 .9 0 1.4-.6 1.1-1.4-.4-.9-.1-1.1.6-.7.7.5.9.2.5-.9-.7-1.8 1.7-4.2 3.3-3.2.5.3 1 .1 1-.6s.6-.5 1.3.6c1.3 1.7 1.4 1.7 2.9-.4 1-1.4 1.8-1.8 2.3-1.2.3.6 0 1.1-.7 1.1-.8 0-.7.5.5 1.7.9.9 2 1.3 2.4.9.4-.4.1-1.1-.7-1.6-.8-.6-1.1-1-.6-1 .5 0 .3-.6-.3-1.3-.6-.8-.8-1.7-.4-2 .3-.4.4-.7.1-.7-.3 0-1.1.6-1.7 1.4zm-9.6 1.5c.7 1.2-1.2 2.4-2.5 1.6-1.1-.7-.4-2.5 1-2.5.5 0 1.1.4 1.5.9zM436.2 339.2c-.7.7-1.2.8-1.2.3s-.7.1-1.6 1.3c-.8 1.2-2 1.9-2.6 1.6-.6-.4-.6.1.1 1.4 1.7 3.1-.8 4.1-3.1 1.2-1.7-2.2-1.9-2.2-3.7-.6-1.3 1.2-2.1 1.4-2.6.6-.3-.5-1.1-.8-1.6-.5-.5.4-.9.1-.9-.6s-.6-.5-1.3.6c-.9 1.1-1.9 1.5-2.7 1-.8-.5-1.1-.4-.6.3.3.5.1 1.2-.6 1.4-.9.3-.9.6 0 1.2.6.3 2-.2 3.2-1.4 1.1-1.1 2-1.5 2-.9 0 .5.4.8.9.4.5-.3 1.3 0 1.7.6.5.8.9.8 1.4-.1 1.1-1.8 2.9-.3 2.5 2.1-.3 1.3 0 1.9.8 1.6.7-.2 1.2-.9 1.2-1.5 0-.7.3-1.2.8-1.2h1.3c.4 0 .1.7-.6 1.5s-.8 1.5-.2 1.5c1.4 0 3.3-2.5 2.5-3.3-.3-.4-.1-.7.5-.7.5 0 1.3.6 1.5 1.2.4 1 .6 1 .6 0 .1-.7.5-1.1 1-.7.5.3 1.3 0 1.7-.6.4-.8.3-.9-.4-.5s-1.2.2-1.2-.3c0-.6-.5-1-1.1-.9-.6.2-1.4-.4-1.6-1.2-.4-1.2-.3-1.2.5-.1.7.9 1.2 1 1.6.2.4-.6.1-1.1-.6-1.1-1 0-.9-.3.2-1 1-.6 2-.4 3.2.7 1 .9 1.8 1.1 1.8.5 0-.6-.4-1.4-1-1.7-1.3-.8-1.3-2.5.1-2.5.5 0 .7.5.3 1.2-.5.7-.3.8.6.3.9-.5 1.1-.4.6.3-.4.7-.2 1.2.5 1.2.9 0 .9.3 0 1.4-.9 1.1-.9 1.5.1 2 .7.3.4.4-.7.1-1.5-.4-2.1 0-2.2 1.4-.2 1.8 0 1.9 2.7.3 1.6-1 2.5-1.9 2-2-.6-.2-1-.8-1-1.3 0-.6.4-.8.8-.5.5.3.8-.5.7-1.7-.1-1.2-.7-2.2-1.2-2.2-.6 0-1.5-.3-1.9-.8-1-1-1.8-.9-3.2.5zm-8.7 6.8c.3.5.2 1-.4 1-.5 0-1.3-.5-1.6-1-.3-.6-.2-1 .4-1 .5 0 1.3.4 1.6 1zM298.4 339.8c.4.7.3 1.2-.1 1.2-.5 0-.9.9-1 2-.2 1.7.1 1.8 1.8.7 1-.6 1.5-1.3.9-1.5-.6-.2-.8-.8-.5-1.2.3-.5 0-1.2-.6-1.6-.8-.4-.9-.3-.5.4z"/><path d="M301 340.2c.1 1.9 2.9 5.3 3.7 4.5.3-.4-.2-1.6-1.2-2.7-1.7-1.8-1.7-2-.2-1.4.9.3 1.7 1 1.7 1.4 0 .5.9.7 2 .5 2.2-.4 4.1 1.6 2.1 2.3-.9.3-.9.7 0 1.8.6.8.8 1.4.3 1.4-.5.1.2.7 1.6 1.5 1.4.8 1.9 1.4 1.3 1.5-2.1 0-1.5 1.6.7 1.7 1.1.1 1.9-.4 1.7-1-.1-.7.4-1.1 1.1-1 .6.2 1.2-.2 1.2-.8 0-.5-.8-.9-1.7-.8-3.1.3-4.4-.1-3.8-1 .3-.5 0-1.3-.5-1.6-.8-.5-.5-1.4.7-2.7 1.7-1.9 1.7-2-.2-3.1-2.5-1.4-3.7-1.5-5-.6-.6.4-1.7.4-2.5-.1-2.1-1.3-3-1.2-3 .2zm10 1.9c0 .6-.4.7-1 .4-.5-.3-1-1.1-1-1.6 0-.6.5-.7 1-.4.6.3 1 1.1 1 1.6zM383.7 339.7c-.4.6 0 1.4.9 1.7.8.3 1.2 1.1.8 1.7-.4.8.1.9 1.7.4 1.9-.5 2.1-.4.9.4-1.3 1-1.3 1.1 0 1.1.9 0 1.1.3.5.8-1.7 1.2-1.7 3.5 0 2.8 1.1-.4 1.4-.2.9.6-.5.8-.2.9 1 .5 1.1-.5 2.2.2 3.4 2.2 1.1 1.8 2.5 2.7 3.9 2.6 1.3-.1 2 .3 1.7.9-.3.6.2.2 1-.8 2.2-2.8 2-4.3-.3-2.2-2 1.8-4.7 1.3-3.5-.6.4-.7.2-.8-.4-.4-.7.4-1.2.3-1.2-.3 0-.5.5-1.3 1-1.6 1.4-.9 1.2-1.7-1.1-4.5-1.1-1.4-1.8-1.9-1.4-1.2.3.6-.1 1.5-.9 1.8-.9.3-1.3 1-1 1.5.3.5-.2.6-1 .3s-1.3-1.4-1.1-2.5c.2-1.1-.2-2.2-1-2.6-.8-.3-1.3-.9-1-1.3.3-.5 0-1.2-.6-1.6-.8-.4-.9-.3-.5.4s.3 1.2-.3 1.2c-.5 0-1.1-.5-1.3-1.2-.3-.8-.6-.9-1.1-.1zm11.8 9.3c-.5.8-1.1.8-1.7.2-.6-.6-.7-1.6-.3-2.2.5-.8 1.1-.8 1.7-.2.6.6.7 1.6.3 2.2zM127.6 341.9c-.3.5.1 1.1.9 1.4.9.4 1.2.1.8-.9-.6-1.6-1-1.7-1.7-.5zM347.9 342c-.1.3-.2 1.1-.3 1.9-.2 2.1-2.1 2.4-3.8.7-1.2-1.1-1.8-1.2-2.7-.3-.9.9-1.4.8-2.1-.3-.7-1.1-1-1.1-1-.2 0 .7.7 1.5 1.5 1.8.8.4 1.3 1 1 1.4-.3.5 0 1.2.6 1.6.8.4.9.3.5-.4s-.2-1.2.4-1.2c.6 0 .8-.4.5-1-.4-.6.1-.7 1.1-.3 1.1.4 1.3.8.6 1.1-.7.2-1.2.8-1.2 1.3s1 .3 2.3-.6c1.3-.8 2.6-1.3 2.8-1.1.2.3 1.1-.8 2-2.3 1.5-2.5 1.4-2.7-.3-2.7-1 0-1.9.3-1.9.6zM164.3 342.7c.4.3.2 1.2-.4 1.9-.7.8-.6 1.4.2 2 .8.4.9.3.5-.4-.5-.8-.1-1 1-.5 1.4.5 1.5.3.5-1.5-.7-1.2-1.5-2.2-1.8-2.2-.3 0-.3.3 0 .7z"/><path d="M383.4 343.1c-.3.6 0 1.5.7 2 1.2.7 1.2.9 0 .9-.8 0-1.2.3-.8.6.3.3 1.3.2 2.2-.4 1.6-.8 1.6-.9 0-1.5-.9-.4-1.3-1.1-1-1.7.3-.5.4-1 .1-1-.3 0-.8.5-1.2 1.1zM435.3 343.5c0 .8.4 1.5.9 1.5.4 0 .8-.4.8-.9 0-.6-.4-1.2-.8-1.5-.5-.3-.9.1-.9.9zM167.9 343.3c-.1.4-.2 1.2-.3 1.7-.2 1.8-2.9 2.9-4.7 1.9-1.2-.6-2-.5-2.4.1-.4.6-1 .8-1.5.5-.5-.3-1.1-.1-1.4.4-.4.5-1.4.8-2.4.7-.9-.2-2 .2-2.4.8-.6.8-1 .8-1.5 0-.5-.6-1.6-1-2.5-.8-1 .1-2.1-.2-2.4-.8-.3-.5-1.4-.2-2.5.8s-2.9 1.8-4.2 2c-1.2.1-2.6.3-3 .3-.5.1-.5.6-.1 1.2.4.8.9.7 1.5-.2.6-1 .9-1.1.9-.2 0 .7.7 1.3 1.6 1.3.8 0 1.2-.5.9-1-.6-.9-.2-1.2 2.8-1.4.6-.1 1.5-.5 1.8-.9.3-.5.9-.1 1.2.8.4.9.3 1.3-.3 1-.6-.3-1-.1-1 .4 0 1.7 2.1 1.3 3.7-.7.8-.9 1.2-1.2.9-.5-.8 1.6.4 4.4 1.6 3.7.6-.4.5-1-.3-1.5-1.2-.8-1.2-1.1.1-1.8.9-.6 1.9-.6 2.6 0 .9.7 1.6.5 2.3-.8.6-1 1.1-1.3 1.1-.6 0 .7.7 1 1.5.7.8-.4 1.3-1 1-1.4-.3-.5-.1-1.1.4-1.4.5-.4.8.2.7 1.1-.2 1 .2 2.1.8 2.5.7.6.8 1 .1 1.5-1.4 1-1.3 3.5.1 4 .7.2 1-1.2.9-4-.1-3 .3-4.4 1.2-4.4.9 0 1 .4.2 1.3-.7.8-.6 1.4.3 1.7 1 .4 1 .7-.1 1.5-.9.7-1 1.2-.2 1.6.6.4.9 1.1.6 1.6-.3.5.4.8 1.5.7 2.3-.1 2.6-1.2.7-2-1.7-.6-1.5-4.9.1-5.5.7-.2 1.2.1 1.2.8 0 .6-.4.9-.8.6-.4-.2-.8.4-.8 1.5 0 1 .4 1.9.8 1.9s.8-.8.8-1.8c0-1.5.2-1.5 1.1-.2.9 1.2.9 1.1.4-.5-.4-1.1-.9-3.3-1.1-4.9-.4-2.8-1.3-4.7-1.5-3.3zM286.6 343.7c-.4.5-1.3.8-1.8.8-.6 0-1.3.6-1.5 1.2-.6 1.6 1.9 1.7 3.5.1.9-.9 1.5-.9 2.4 0 1.6 1.6 4.1 1.5 3.6-.1-.3-.6-1-1.2-1.5-1.2-.6 0-1.5-.3-1.9-.8-.4-.4-1-.7-1.4-.7-.4 0-1 .3-1.4.7zM299.4 344.4c-1 .8-1.6 1.8-1.1 2.2.4.4 0 1.6-1 2.6-1.9 2.2-.6 2.3 2.2.2 2.2-1.7 2.3-2.3.3-3.5-1-.7-.9-.9.4-.9.9 0 2 .4 2.3 1 .3.5.1 1-.5 1s-.8.5-.5 1.1c.5.7 1.4.4 2.8-.8 1.1-1 1.7-1.3 1.4-.6-.4.6 0 1.6 1 2.2 1 .6 1.4 1.1 1 1.1-.5 0 .1 1.4 1.4 3.1 1.6 2.3 1.9 3.3 1 4.2-1.8 1.8-1.3 2.8.8 1.5 1.1-.7 1.7-1.6 1.4-2.1-.3-.5.4-.4 1.5.2 2.7 1.4 2.9 1.4 2.9-.4 0-1-.6-1.4-1.6-1-1.1.4-1 0 .4-1.3 1.1-1.1 2.2-2 2.5-2 2.8 0 3.2-.3 2.1-1.6-.8-1-.9-1.6-.1-2.1.6-.4.9-.1.8.6-.2.6.3 1.4 1.1 1.7.8.2 1.1 0 .8-.5-.3-.5 0-1 .8-1s1.5.3 1.5.7c0 .4.7.7 1.5.7 1.1 0 1.4-.7 1-2.1-.3-1.2.4-.5 1.5 1.4 1.2 1.9 1.8 2.6 1.4 1.5-.4-1.1-.7-2.7-.8-3.6 0-1.7-2.3-1.9-3.4-.3-.9 1.2-3.2 1.6-3.2.6 0-1.8-3.2-.8-4.7 1.5-.8 1.2-1.9 2-2.4 1.7-.5-.3-.8 0-.7.8.2.8-.6 1.3-2.2 1.3-1.5 0-2.5-.6-2.5-1.5 0-.8-.6-1.9-1.3-2.3-.7-.5-1-1.2-.7-1.7.3-.5.1-1.2-.5-1.5-.8-.5-.8-1.1-.1-1.9.8-.9.7-1.3-.4-1.3-.8 0-1.2.4-1 .8 1 1.5-3 2-4.1.5-.9-1.3-1.3-1.4-3-.2zM334.9 343.7c-.1.5-.1 1.2 0 1.6.2 1.4-2 4.8-2.8 4.3-.4-.3-.8.8-.8 2.4 0 3.2 1.7 3.9 3.7 1.5 1-1.2.9-1.6-.5-2.1-1.6-.6-1.5-.9.6-2.6 1.3-1.1 1.8-1.6 1-1.2-.9.5-1.2.3-.7-.5.4-.6 1.2-.9 1.7-.5.5.3.7.9.4 1.4-.3.4.1 1 .9 1.3 2.1.8 4.8 6.9 3.6 8.1-1.7 1.7-1.1 2.7.9 1.4 1.1-.7 1.7-1.6 1.4-2.1-.3-.5.4-.4 1.5.2 2.7 1.4 2.9 1.4 2.9-.4 0-.9-.6-1.4-1.4-1.1-.9.4-1.1.1-.7-.6.5-.7.2-.9-.8-.5-1.6.6-3.8-1-3.8-2.8 0-.5.5-.3 1 .5s1 1 1 .5c0-1.3-1.6-3.7-2.4-3.6-1.8.3-2.2-.1-3.4-2.9-1.3-2.8-3-4-3.3-2.3zM350.7 344.3c-.2.6-.1 2.1.3 3.1.6 1.7.7 1.8 1.3.3.4-1 .2-1.7-.5-1.7-.6 0-.9-.3-.6-.6.3-.3 1.5 0 2.7.7 2.3 1.5 4.1.5 2.3-1.3-1.7-1.7-4.9-2-5.5-.5z"/><path d="M380 344.5c.5.7.6 1.5.2 1.9-.4.4-.7 1.3-.7 1.9 0 1.6-7.6 1.2-8.6-.4-.4-.7-.6-1.6-.3-2 .5-.9-2.5-2.1-3.7-1.3-.5.3-.7 1-.4 1.5.4.5.1.9-.5.9s-.4 1 .6 2.5c1.5 2.3 3.4 2.6 3.4.4 0-.6-.5-.7-1.2-.3-.6.4-.8.3-.4-.4.3-.5 0-1.3-.6-1.5-.9-.4-1-.6-.1-.6.6-.1 1.9.9 2.7 2.1.9 1.2 1.6 1.9 1.6 1.4s.9-.1 1.9.8c1.1 1 2.2 1.3 2.5.8.3-.6 0-1.3-.6-1.5-1-.4-1-.6 0-.6.7-.1 1.5.6 1.8 1.4.5 1.2 1 1.3 2 .4.8-.6 1.2-1.5.9-1.9-.3-.4.2-1 1-1.4 2.1-.8 2.9 1.1.9 2.2-1.1.6-1.3 1.2-.6 1.6.6.4 1.7-.2 2.4-1.4 1.3-2 1.3-2 3.1.2 1 1.3 1.5 1.7 1.1.9-.5-.9-.3-1.2.5-.7.6.4.9 1.2.5 1.7-.3.5-1 .7-1.5.4-.5-.4-.9-.1-.9.4 0 1.4 2.7 1.4 3.5.1.3-.6 1.2-1 1.8-.9.9 0 .9.2 0 .5-.7.3-.9 1.3-.6 2.1.6 1.4.7 1.4 1.3-.3.9-2.2-.6-5.7-2-4.9-1.3.8-5.2-1.4-4.5-2.5.4-.6-.4-.9-1.7-.7-1.4.1-2.2-.3-2-1.1.1-.6-.3-1.2-.9-1.2-.5 0-.8-.4-.5-.8.3-.5-.1-.9-.9-.9-1 0-1.2.4-.5 1.2zM271.9 344.7c-.1.4-.1 1.2 0 1.7s-.5.6-1.3.3-2 .1-2.6.8c-1 1.2-.6 1.4 2.4 1.2 3.3-.3 6.4-1.7 3.7-1.7-.7 0-1-.4-.6-.9.3-.5.1-1.2-.5-1.6-.5-.3-1.1-.3-1.1.2zM279.7 344.6c-1 1.1-.9 2.6.2 1.9.5-.3 1.2-.1 1.5.4.4.5.2 1.2-.4 1.6-1.2.7-.4 2.5 1.1 2.5.6 0 .8-.4.5-.8-.3-.5.1-.9.9-.9s1.5.3 1.5.7c0 .3 1.4.6 3 .6 1.7 0 3-.3 3-.6 0-.4.7-.7 1.5-.7s1.2.4.9.9c-.3.4 0 .8.5.8.6 0 1 .3 1 .7-.4 2.5.2 3.5 1.4 2.5.7-.6 2.6-.9 4.3-.6 2.2.4 2.6.2 1.7-.7-.6-.6-.9-1.9-.6-2.8.4-1.4.3-1.4-.6-.1-.6.8-1.1 1.1-1.1.6 0-.5-.7-.3-1.5.4-2.2 1.8-4 .2-2.1-1.9 1.4-1.5 1.4-2 .2-3.6-1.3-1.8-1.4-1.7-2.7.8-1.8 3.4-2.5 3.6-4.4 1.2-1.3-1.8-1.7-1.8-2.8-.5-1.4 1.7-3.7 2.4-3.7 1.2 0-1.5-2.6-4.3-3.3-3.6zm16.7 3.5c-.3.5-1 .7-1.5.3-.5-.3-.7-1-.3-1.5.3-.5 1-.7 1.5-.3.5.3.7 1 .3 1.5zm-7.4-.1c0 .5-.4 1-1 1-.5 0-1-.5-1-1 0-.6.5-1 1-1 .6 0 1 .4 1 1zM357.8 346.4c-1.4 2.7-2.7 3.3-3.7 1.7-.4-.6-1.1-.3-1.9.9-1 1.6-.9 1.8.8 1.7 1.1-.1 2-.4 2-.7 0-.4.7-.7 1.5-.7s1.2.4.9.9c-.3.4-.1.8.5.8 1.5 0 2.3-1.8 1.1-2.5-.6-.4-.8-1.1-.4-1.6.3-.5 1-.7 1.5-.4.5.4.9.2.9-.4 0-2.2-2-2-3.2.3z"/><path d="M276 346c-.8.5-1.1 1-.6 1 .5 0 .3.7-.4 1.5-1 1.3-1.1 1.8-.1 2.8 1 .9 1.1.8.6-.6-.4-.9-.3-1.7.1-1.7 1.6.1 4.6 2.9 4.1 3.7-.3.5.4 1 1.5 1 2 .2 2 .2-.1-2.1-1.7-1.8-1.8-2.5-.8-3.6.8-.9.8-1.1 0-.6-.6.3-1.5 0-2-.8-.6-1.1-1.3-1.2-2.3-.6zM361.6 346.6c-.4.9-1.1 1.2-1.8.8-1-.6-1-.5-.1.7.9 1.1.8 1.8-.2 3.2-.8 1.2-1.5 1.4-2 .8-.8-1.4-2.5-1.4-2.5 0 0 .5.6.7 1.3.3.9-.6.8-.3-.1.9-1.2 1.4-1.1 1.6.7 1.4 1.2-.1 2.1-.5 2.1-.9 0-1.1 4.2-4.8 5.4-4.8.7 0 .6.3-.1.8-.8.5-.1 1.7 2.2 3.8 1.9 1.7 3.5 2.7 3.5 2.2s.4-.7.9-.3c.5.3 1.3 0 1.7-.6.4-.7.3-.9-.3-.6-.6.4-1.4 0-1.7-.8-.4-1.3-.2-1.3 1.4-.5 1.3.7 1.7 1.6 1.3 2.8-.6 1.6-.5 1.6 1.3 0 2.2-2 4.7-.7 3.7 1.8-.3.9 0 1.2.9.9 1.6-.6 2-3.5.6-3.5-.5 0-.6-.5-.2-1.1.4-.8.9-.7 1.5.2.6 1 .9 1 .9.2 0-1.5-1.7-2.6-2.4-1.5-.8 1.3-5.7.6-6.6-.8-1-1.7-1.5-1.7-3.5 0-1.4 1.1-1.9 1.2-2.2.2-.3-.6-1-.9-1.6-.5-.6.4-.8 0-.4-1 .3-.9.2-1.9-.4-2.2-.5-.4-.7-1-.4-1.5.3-.4-.1-1-.9-1.3-.8-.3-1.7.1-2 .9zM409.6 346.6c-.4.9-1.1 1.2-1.8.8-1-.6-1-.5-.1.7.9 1.1.8 1.8-.3 3.3-1.4 2-5 3.3-3.8 1.5.3-.5 1.1-.6 1.7-.3.8.4.7.2-.1-.7-1.1-1.2-1.4-1.2-2.1 0-.5.8-.7 2-.4 2.7.6 1.5 3.2 1.2 4.3-.6.9-1.5 2.5-.7 2.5 1.2 0 .6.5 1.3 1.2 1.5 1.8.6.9-2.5-1.2-4.1-1.8-1.3-1.7-1.4 1.3-1.3 1.8.1 3.2.6 3.2 1.1 0 .5.3.7.6.4.3-.4 0-1.7-.7-3-.7-1.2-1.2-2.6-1.1-3 .3-1.4-2.7-1.6-3.2-.2zm3.4 3.2c0 .5-.7.9-1.5.9s-1.2-.4-.9-.9c.3-.4.9-.8 1.5-.8.5 0 .9.4.9.8zM455.8 346.2c0 .7-.2 2-.3 2.8-.1.8.2 2.2.6 3.1.5.9.3 2.1-.3 2.7-.9.9-.8 1.2.3 1.2.7 0 .1.7-1.4 1.5-2.6 1.3-3.1 1.3-5 0-1.2-.8-1.8-1.5-1.3-1.5s.1-1-1-2.2c-1-1.2-1.3-1.8-.6-1.4.6.4 1.2.5 1.2.2s-1.4-1.3-3-2.1c-1.7-.9-2.8-2-2.5-2.5.9-1.4-.8-1.2-2.9.3-1.1.8-1.5 1.9-1 3.1.6 1.7.8 1.6 2-.5l1.3-2.4 1 2.5c.5 1.4 1 1.8 1 1 .1-.8.8-.2 1.6 1.4 1.1 2 1.2 3.3.5 4-1.3 1.3-1.3 3.6.1 3.6.5 0 .8-.4.4-.9-.3-.5-.1-1.3.5-1.6 1.6-1 4 1.4 3.3 3.2-.4 1.1-.2 1.4.5.9.7-.4 1-.2.6.7-.3.8.2 1.4 1.1 1.4 1.8 0 1.8-.2.4-2.9-.6-1.2-.7-1.8-.1-1.4.5.3 1.3-.1 1.6-1 .3-.8 1-1.2 1.6-.9.5.3 1 .1 1-.4 0-1.9.2-2.6 1.2-4.5.7-1.3.7-1.6-.1-1.2-.6.4-1.1.3-1.1-.3 0-.5.4-1.2.8-1.5 1.3-.8.7-4.9-.6-5.4-.7-.2-1.3.2-1.4 1zm1.7 2.7c.3.5.2 1.2-.3 1.5-.5.3-.9-.1-.9-.9 0-1.7.3-1.9 1.2-.6zM130.9 346.7c-.1.5-.1 1.2 0 1.7s-.5.6-1.4.2c-.8-.3-2.2-.9-3-1.2-2.3-.9-1.8 1.5 1 5.1 1.3 1.8 2.1 3.5 1.8 3.9-.4.3-.1.6.5.6 1.7 0 1.5-2-.5-4.4-1.7-2-1.7-2 .1-.6s1.9 1.3 1.3-.2c-.7-2 1-3.5 2.5-2 .6.6.4 1.5-.7 2.6-.9.9-1.1 1.6-.5 1.6.6 0 .9.4.5.9-.3.5 0 1.3.6 1.7.8.4.9.3.5-.4s-.2-1.2.5-1.2.9-.3.6-.7c-.4-.3 0-1.7.8-3 .9-1.3 1.2-2.4.8-2.4-.5-.1-1.2-.2-1.8-.4-.5-.1-1.7-.3-2.5-.4-1.3-.1-1.3-.2 0-1.1 1-.6 1.1-1 .3-1-.7 0-1.4.3-1.4.7zm-2.4 3.1c-.3.3-1.1 0-1.8-.7-.9-1-.8-1.1.6-.5 1 .3 1.5.9 1.2 1.2z"/><path d="M122.4 347.8c.4.7.2 1.2-.5 1.2s-.9.3-.6.7c.4.3.2 1.2-.3 1.8-.8.9-.6 1.4.5 1.8.8.4 1.4.1 1.2-.5-.1-.6.4-1.2 1.1-1.4.8-.2.9-.1.1.3s-.3 1.1 1.2 1.9c1.3.7 1.8 1.3 1.1 1.4-1 0-1 .4 0 1.9.7 1.1 1.6 1.7 2.2 1.4.5-.3.6-.1.3.4-.4.6.5 1.9 2 2.8 2.4 1.6 2.6 1.6 2 0-.4-.9-.7-1.9-.7-2.1 0-.3-.5-.2-1.2.2-.7.5-.8.3-.3-.6.6-1 1.1-.9 2.1.4 1.1 1.6 1.3 1.6 1.9-.3.3-1.2 1-2.1 1.4-2.1.4 0 .7-.9.8-2 .1-1.1-.3-2-.9-2-.6 0-.8.3-.5.6.3.4.2 1.4-.3 2.3-1 2-6.5 2.2-6.5.3 0-.8-.8-1.9-1.7-2.6-1-.7-1.5-1.6-1.1-1.9.3-.4-.2-.9-1.1-1.3-.9-.3-1.4-1-1.1-1.4.3-.5 0-1.2-.6-1.6-.8-.4-.9-.3-.5.4zM347 348.2c0 .4-.5.7-1.1.5-.6-.1-1.2 1-1.3 2.5-.1 1.4.2 2.4.6 2.2 1.2-.8 4.9 1.6 4.3 2.7-.9 1.4 1.1 1.1 2.3-.4.7-.8.7-1.7-.1-2.8-1.3-1.7-5-2.2-4-.6.3.6.1.7-.6.3-1.7-1.1.6-3.7 2.5-2.9.9.3 1.2 0 .9-.9-.6-1.5-3.5-2.1-3.5-.6zm4 5.9c0 .6-.4.7-1 .4-.5-.3-1-1.1-1-1.6 0-.6.5-.7 1-.4.6.3 1 1.1 1 1.6zM416.6 348.6c-1.6 1.1-1.7 1.6-.6 2.9.7.8 1.7 1.5 2.2 1.5.6 0 .5-.6-.2-1.5-.6-.8-.9-1.9-.5-2.6.6-.8 1-.8 1.5.2 1 1.5 4 2.1 4 .8 0-.6.4-.8.8-.5.5.3.9-.1.9-.9 0-1-.4-1.2-1.2-.5-.7.5-1.5.7-1.9.3-1.2-1.2-3.2-1.1-5 .3zM172.1 348.9c-.7.5-1.1 1.3-.7 1.9.9 1.5-.4 4.3-1.7 3.5-.5-.3-.7-.1-.4.5.9 1.3-.2 4.2-1.5 4.2-.5 0-.7-.4-.4-.8.6-1-3-.9-4 .1-1.1 1-2.6.8-1.9-.2.3-.5.1-1.2-.4-1.5-.5-.4-.8-1.8-.5-3.1.5-2.9-.3-3.2-2.2-.8-1.6 2.2-1.8 4.3-.3 4.3.5 0 .8-.4.4-.9-.3-.5-.1-1.2.4-1.6.6-.3.8.4.6 1.5-.3 1.3 0 1.8.7 1.4.7-.4.8-.3.4.4-.4.6-1.4.8-2.3.5-1.2-.5-1.4-.3-.8.7.5.8.4 1.1-.2.7-.6-.4-1.4 0-1.7.9-.9 2.5-.8 2.6 1.9.8 1.3-.8 2.9-1.3 3.4-1 .5.4 1.3.2 1.6-.4.5-.8 1.1-.7 2.1.1 1.1.9 1.4.9 1.4-.1s.3-1 1.4-.1c1.2 1 1.6.8 2.1-1 .7-2 .8-2.1 1.7-.5.5 1 .7 2 .4 2.3-.3.4-.6 0-.6-.8 0-1.1-.2-1.1-1 .1-1.2 1.8-1.3 3-.2 2.9 1.8-.3 3.2.2 3.2 1.1 0 .5-.3.9-.7.9-2.2-.4-3.1.3-2.8 1.8.2 1 .4 2 .4 2.3.1.3.6-.2 1.1-1 .7-1.1.9-.5.7 2.1-.2 2.1.1 3.6.8 3.6.9 0 1.2-3 .5-6.2-.1-.6-.1-1.2 0-1.5.1-.3.3-2.6.4-5.1.1-3.7-.2-4.6-1.4-4.2-1.3.4-1.3.3 0-.9.8-.7 1.5-2.8 1.6-4.6V348c-.1 0-.7.4-1.5.9zM303 349.9c-.7 1.4-.7 2.2.2 2.7.7.5.8.3.3-.6-.5-.9-.4-1.1.4-.6 2 1.3-.7 3.5-3.7 3.2-1.5-.1-3.3.2-3.9.7-.9.6-1.6.1-2.4-1.6-.7-1.5-1.9-2.5-3-2.4-1 .1-1.5.5-1.3.9.6 1-1 1.1-2 .1-.3-.4-1.6-.8-2.7-1-1.4-.2-1.9.2-1.7 1.4.2 1.4-.4 1.8-2.8 1.8-2-.1-3 .3-2.7 1 .2.7 1 1.2 1.8 1.2s1.1-.5.8-1c-.3-.6-.1-.7.6-.3.6.4.9 1.2.5 1.7-.3.5-.9.7-1.4.4-.5-.3-.8.4-.7 1.5.1 1.1.7 2 1.4 2s1.3-.3 1.2-.8c-.2-1.3 1.3-5.2 2-5.2.4 0 .8.7.8 1.5s-.5 1.5-1.1 1.5c-.6 0-.4.5.4 1 2.1 1.3 2.7 1.2 2.7-.5 0-.8-.3-1.5-.7-1.5-.4 0-.7-.7-.7-1.5s.4-1.2.9-.9c.4.3.8 0 .8-.7 0-.8.7-.6 1.9.5 1.1 1 1.7 2.4 1.4 3.2-.4 1 0 1.2 1.1.8 1.8-.7 1.7-2.4-.3-4-1.1-.9-1.2-1.2-.1-1.9.9-.6 1.1-.4.5.5-.5.9-.4 1.1.3.6 1.1-.6 1.4 0 1.1 2-.1.8 2.2 2.4 3.4 2.4.5 0 .6-.4.2-.9-.3-.5-.1-1.2.4-1.5.5-.4.8.2.7 1.1-.2 1 .2 2.1.8 2.5.7.6.8 1 .1 1.5-1.4 1-1.3 3.5.1 4 .7.2 1-1.3.9-4.2-.1-4.5.7-6.5 1.9-4.6.4.5.1 1.3-.5 1.7-.8.4-.7.9.2 1.5 1.2.8 1.2 1 0 1.8-.9.6-1 1.1-.2 1.5.6.4.9 1.1.6 1.6-.3.5.4.8 1.5.7 2.3-.1 2.6-1.2.7-2-1.1-.4-1.5-3.6-.7-5.7.1-.3.2-.8.2-1.2-.2-1.1 2.7-1.8 3.3-.8.8 1.3-.4 3.2-1.5 2.5-.5-.3-1.1-.1-1.5.5-.6.9.8 1.4 2.8 1.1.5-.1.5.4.1 1-.5.8-.3.9.5.4 1-.6 1.1-.3.2 1.3-1.4 2.7-1.4 2.9.4 2.9 1 0 1.4-.6 1-1.6-.3-.8-.3-1.2.1-.8.4.4 1.3-.1 2.1-1.1 1.2-1.6 1.3-1.6.7.1-.4 1.2-.2 1.7.7 1.5.8-.2 1.3.3 1.2.9-.2.7.2 1.3.7 1.3 1.3 0 1.3-2.3-.1-3.7-.8-.8-.7-1.3.2-1.8.8-.6 1-.4.4.4-.6 1-.3 1.1 1.4.2 1.2-.7 2.7-.9 3.3-.5.7.5.8.3.3-.6-.5-.9-.4-1.1.3-.6.7.4 1.2.2 1.2-.4 0-.8-.7-.9-1.7-.5s-3.1.9-4.7 1.1c-1.6.2-3.4.8-4.1 1.4-.8.6-1.5.6-2.3-.2-1.6-1.6-1.5-2.9.1-2.6.6.2 1.2-.4 1.2-1.2 0-.8-.6-1.4-1.4-1.2-.9.2-1.1-.3-.7-1.3.3-.9-.1-1.8-.9-2.1-.8-.4-1.3-1-1-1.4.3-.5.1-1.1-.4-1.5-.6-.3-1.5.3-2.1 1.4z"/><path d="M270.6 350.1c.5.9.2 1-.9.6s-1.4-.2-1 .8c.3.8.9 1.2 1.4.9.5-.3.6 1 .3 2.8-.3 1.8-.6 4.4-.8 5.8-.5 3.5-.5 3.5-1.7 2.3-1.3-1.3-4.2-.5-3.3.9.4.6.9.6 1.4-.2.5-.8.9-.7 1.3.4.4.9.1 1.5-.5 1.3-.6-.1-1.4 1-1.8 2.5-.6 2-.5 2.5.5 2.2.8-.3 1.2.1 1.2 1.2-.1.9.5 1.9 1.3 2.2 1.3.5 1.3.3.1-1.1-.7-1-.9-1.7-.3-1.7 1.3 0 2.3 2.8 1.2 3.5-.4.3-1.5.2-2.4-.1-.9-.3-1.6-.1-1.6.4 0 .6 1.4.9 3 .7 1.8-.2 2.8 0 2.5.5-.3.6 0 .8.7.5 2.8-1.1 7.8-1.2 7.8-.2 0 .6.7.2 1.6-.9.8-1 1.3-1.4 1-.7-.4.8.3 1 2.4.8 2-.3 2.8 0 2.4.6-.4.8 0 .8 1.2.2 2.3-1.1 5.4-1.1 7.3.1.9.6 1.2.5.9-.4-.8-2.5-3.7-3.7-4.8-2-.8 1.2-1 1.2-1 .1 0-1.1-.3-1.1-1.7 0-.9.8-1.4.9-1 .3.4-.7 0-1.8-.9-2.5-1.3-1.1-1.5-1-1.2.6.1 1-.3 2-.9 2.2-.7.3-1.3 0-1.3-.7 0-.6.5-.8 1.2-.4s.8.3.4-.5c-.4-.6-1.2-.9-1.7-.6-.5.4-.9.1-.9-.5 0-.7-.5-.6-1.4.2-.8.7-1.3 1.5-1.1 1.8.2.3-1.6.5-3.9.6-2.8 0-4.3-.4-4.4-1.3-.1-.7-.3-2-.4-2.8-.1-.8-.6-1.5-1.2-1.4-2.2.3-3.6-.1-3.6-1 0-.6.8-.8 1.8-.6 1.8.3 2.1-.5 2.3-6.5.1-1.4.4-1.9.6-1.2.5 1.3 2.3.7 2.3-.9 0-.6-.4-.7-1-.4-.5.3-1 .2-1-.4 0-.5.6-1.2 1.3-1.4.9-.4.9-.8-.2-1.5-.9-.7-1-1.2-.2-1.6.6-.4 1.1-.1 1.1.6 0 1.1.2 1 .9 0 .7-1.1.9-1 1.4.3.4.9.3 1.3-.3 1-1.3-.8-1.3.1.1 2.6.5 1.1 1.5 1.7 2 1.3.7-.4.6.3-.1 1.6s-.8 2-.2 1.6c1.5-.9 2.6 1.4 1.3 2.7-1.8 1.8-1.2 3.1.7 1.5.9-.9 2.3-1.3 3.1-1 .8.3 1.1 0 .7-.7-.4-.6-.2-.9.7-.5.8.3 1.4-.2 1.4-1.1 0-.8-.5-1.5-1-1.5-.6 0-.8-.3-.5-.6.4-.3 1.6 0 2.8.6 2.7 1.5 4 0 3.6-3.9-.4-3-2.6-4.1-2.3-1.2.1 1.2.5 2.1.9 2.1s.8.4.8.9c0 1-4 .8-5.8-.3-.7-.4-1 .1-.7 1.3.2 1.1-.3 2.2-1.1 2.5-.8.3-1.3.2-1-.3.3-.5-.1-1.2-1-1.5-.9-.4-1.4-.9-1.1-1.3.3-.3 0-1.8-.8-3.4-1.3-2.5-1.3-2.9.1-3.7 1.4-.8 1.3-1-.2-2.3-1-.8-1.5-.9-1.1-.2 1.2 1.9-1.1 2.5-2.5.6-1.5-2-4.4-3-3.2-1.2zM335.6 349.7c-.3.3-.2 1.1.3 1.7.8 1-2.2 6.1-3.6 6.1-.3 0-1.3-1.6-2.4-3.5-1-1.9-1.8-2.8-1.9-2 0 1.3-.2 1.3-1.1 0-.9-1.2-1-1.2-.5.4.4 1 .1 2.5-.5 3.2-1.3 1.5-.9 1.7 1.5.8.9-.3 1.3-1.1.9-1.7-.4-.6-.1-.7.7-.2 1 .6.9 1.1-.5 2.2-1.1.7-1.6 1.3-1.3 1.3.4 0 1.4.3 2.4.7 1 .4 1.5.2 1.1-.4-.3-.5 0-1 .8-1s1.5.3 1.5.7c0 .4.7.7 1.5.8.8.1 2.2.3 3 .4.8.1 1.1.6.8 1.1-.4.6-.1.7.6.2 1-.6 1.1-.3.2 1.3-1.4 2.7-1.4 2.9.4 2.9 1 0 1.4-.6 1-1.6-.3-.8-.3-1.2.1-.8.4.4 1.3-.1 2.1-1.1 1.2-1.6 1.3-1.6.7.1-.4 1.2-.2 1.7.7 1.5.8-.2 1.3.3 1.2.9-.2.7.2 1.3.7 1.3 1.3 0 1.3-2.3-.1-3.7-.8-.8-.7-1.3.2-1.8.8-.6 1-.4.4.4-.4.8.5.6 2.5-.4 1.8-.9 2.9-1.2 2.6-.7-.4.6-.2 1.3.2 1.6 1.1.7 3.8-4.1 2.9-5.1-.4-.3-1.6.2-2.7 1.2s-3.4 1.9-5.1 2.1c-1.8.2-3.7.8-4.4 1.4-.8.6-1.5.6-2.3-.2-1.6-1.6-1.5-2.9.1-2.6.6.2 1.2-.4 1.2-1.2 0-.8-.6-1.4-1.3-1.2-.9.2-1.1-.4-.7-1.7.4-1.4 0-2.3-1.3-3-1.1-.6-2.2-.7-2.6-.4zm2.8 7.3c-.6.6-1.5.6-2.4 0-1.3-.9-1.3-1.1 0-2 1.8-1.1 3.9.5 2.4 2zM430.5 351.3c-.9 1.2-1.5 1.5-2 .7s-1.1-.8-2.1.1c-1 .8-1.4.8-1.4 0 0-.6-1-.9-2.2-.7-1.3.2-3-.2-3.8-.8-1.3-.9-1.3-.9-.2.6.7.9.9 1.8.5 2.1-1.1.7-5.9.1-7.5-.9-1-.6-1-.4-.2.7 1.2 1.6 1.2 2.9 0 4.8-.7 1-.6 1.2.3.6 1-.6 1.1-.3.2 1.3-.6 1.2-.7 2.3-.2 2.6.4.3 1.3-.5 1.9-1.9.8-1.7.8-2.5-.1-2.8-.6-.2-.3-.6.7-1s1.5-.3 1.1.3c-.3.6-.1 1 .4 1 .6 0 1.1-.7 1.1-1.5s-.5-1.5-1.2-1.5c-.6 0-.8-.3-.4-.7.4-.5 1.4.1 2.2 1.2 1.8 2.5 2.2 2.4 4.4-1 1.7-2.5 1.8-2.6 2.9-.9.6 1.1 1.1 1.5 1.1 1s.8-.2 1.7.5c1.4 1.2 1.6 1.2 1.1-.2-.4-1-.1-1.6.8-1.6.8 0 1.4.4 1.4.9s.5.6 1 .3c.8-.5.8-1.1 0-2-.8-.9-.8-1.5 0-2 .6-.4.9-.1.8.6-.2.6.3 1.4 1.1 1.7.8.2 1.1 0 .7-.6-.3-.6-.2-1.3.3-1.6.5-.4 1.2-.2 1.5.3.4.5.2 1.2-.4 1.6-.6.4-.7 1.1-.4 1.7.4.6 1 .5 1.5-.3.7-1.1 1-.9 1.5.9.6 2 .8 2.1 1.9.6.9-1.3 1.4-1.4 1.9-.5.8 1.3.1 2.5-1.5 2.7-2.2.3-2.3.5-1 1.3 1.1.7 1.2 1.3.3 2.3-.9 1.1-.9 1.7 0 2.6 1.7 1.7 3.3 1.5 1.8-.2-.9-1.1-.9-1.9 0-3.3 1-1.6 1.1-1.6.7.4-.3 1.5-.1 2 .8 1.7.7-.3 1.6-.1 2 .5.3.6 0 .9-.8.5-.8-.3-1.4.2-1.4 1.1 0 1.8.2 1.8 2.8.4 1.1-.5 1.6-1.5 1.3-2.1-.4-.7-.2-.8.5-.4.9.6.9 1.1 0 2.2-1 1.2-.9 1.3.4.9.8-.4 1.8-.2 2.2.4.6 1.1-.6 1.5-3.5 1.2-1.1-.1-1 .3.4 1.4 2.3 1.8 4 2 3 .3-.4-.6-.3-.8.3-.5.6.4 1.4 0 1.7-.9.8-2.2.8-2.6-.3-1.9-1.1.6-3.3-2.8-2.9-4.6.2-.6-.4-1.4-1.2-1.6-1.2-.4-1.2-.3-.2.5 1.1.7 1 1.1-.4 1.6-1.2.5-2.3.1-3.1-1-1.6-2.3-1.7-3.5 0-3.2.6.2 1.2-.4 1.2-1.2 0-.8-.5-1.4-1.2-1.3-.6.2-1.5-.7-1.8-1.8-.6-1.9-.7-2-2-.2-1.2 1.7-1.4 1.6-2.6-.9-1.4-3.2-5.3-3.5-7.4-.5zm-8.5 1.1c0 .2-.8 1-1.7 1.7-1.6 1.3-1.7 1.2-.4-.4 1.3-1.6 2.1-2.1 2.1-1.3zM142.7 352.3c-.3.7.3 1.3 1.3 1.3s1.6-.6 1.3-1.3c-.3-.7-.9-1.3-1.3-1.3s-1 .6-1.3 1.3z"/><path d="M153.3 352.2c.3.9-.1 2.2-.8 2.8-1.2 1-1.6.9-2.1-.4-.4-1.1-1.1-1.3-2.2-.7-1.9 1-7.3.8-9-.3-.7-.4-1.3-.2-1.3.3-.3 2-.5 2.6-2.8 6.4-1.6 2.5-2.7 3.5-3.5 2.9-.6-.5-2-.6-3-.3-1.7.7-1.7.8-.3 1.4.8.3 1.7.1 2-.6.2-.6.6-.3 1 .7.4 1.1.3 1.5-.4 1-.7-.4-1-.1-.7.7.3.8-.1 2.2-1 3.1-1.7 2-.3 2.5 1.6.6.9-.9 1.5-.9 2.4 0 1.5 1.5 3.8 1.6 3.8.1 0-.5-.5-.7-1-.4-.6.3-1.3-.1-1.6-.9-.3-.9-1-1.3-1.5-1-.5.3-.4-.6.2-2 1.1-2.4 1.2-2.4 3.2-.5 2.4 2.2 4.5 2.6 2.8.6-.6-.8-.7-1.7-.3-2.1.4-.5-.2-.6-1.2-.4-1 .1-2.1-.3-2.4-1.1-.3-.9.1-1.1 1.6-.7 2.2.7 3.9-.8 2.2-1.9-.5-.3-1-.1-1 .5s-.5.8-1.1.4c-.7-.4-.1-1.3 1.5-2.3 1.4-1 2.3-2.1 1.9-2.6-.5-.4-.1-.4.7.1 2 1.1 4.2 1.1 6-.1.8-.5 1.2-.5.8-.1-.4.5 0 1.5 1 2.2 2.7 2.1 3.7 1.6 1.6-.8-1.9-2.2-1.9-2.3.1-.8 2.4 1.8 3.5 3.2 3.5 4.5 0 .5-.4.4-.9-.4-.6-.9-1.1-1-1.5-.2-.4.6-.2 1.1.4 1.1.7 0 1 .6.7 1.2-.2.7-1.3 1.1-2.3 1-1-.2-1.6-.1-1.2.4.4.4.3 1.3-.3 2.1-1.7 2 .4 1.6 2.8-.6 2-1.9 2.1-1.9 3.2.5.6 1.4.7 2.3.2 2-.5-.3-1.2.1-1.5 1-.3.8-1 1.2-1.6.9-.5-.3-1-.1-1 .4 0 1.5 2.3 1.4 3.8-.1.9-.9 1.5-.9 2.4 0 .7.7 1.9 1.2 2.7 1.2 1.1 0 .9-.4-.6-1.5-1.4-1-2-2.1-1.6-3.2.4-1.1.3-1.4-.5-.9-.8.5-1 .2-.5-.9.4-1.2.8-1.3 1.3-.5s1 .8 1.4.2c.8-1.4-1.9-2.3-3.2-1-1.8 1.8-2.5-1.2-.8-3.7.9-1.4 1.3-2.5.8-2.5-1.4 0-1-2.9.5-3.4.7-.3 1.3-1.1 1.3-1.8 0-1-.3-.9-.9.1-.8 1.3-1.2 1.3-2.7 0-1.6-1.2-1.7-1.2-1.1.3zm1.4 4.3c0 .8-.4 1.2-.9.9-.4-.3-.8-.9-.8-1.5 0-.5.4-.9.8-.9.5 0 .9.7.9 1.5zM321.3 352.4c-1.3.6-2.3 1.4-2.3 1.9 0 .4-.4.6-.8.3-.5-.3-.9.1-.9 1s.7 1.2 1.8.9c2.1-.7 3.1.7 2.3 2.9-.4 1-1.3 1.4-2.3 1.2-.9-.3-2.3-.1-3.1.4-.8.5-1 1-.4 1 1.6 0 1.3 2.8-.4 3.5-1.6.6-3.4-.3-2.8-1.4.3-.4-.1-.8-.9-.8s-1.7.7-1.9 1.4c-.3.8-1 1.1-1.6.8-1.5-.9-1.2 1.1.3 2.4 1 .7 1.7.7 2.4 0 .8-.8 1.3-.8 1.7 0 .8 1.2 2.7 1.5 2.5.3-.3-1.8.2-2.4 1.4-1.4 1 .9 1.7.6 2.9-.8.9-1 1.4-2.1 1.1-2.4-.3-.3-1.1.2-1.8 1-1.1 1.5-1.2 1.5-1.2.1 0-2 2.8-3.2 3.7-1.6.6.8.9.8 1.4 0 .4-.6 1.2-.9 1.7-.5.6.3.9-.2.7-1.1-.2-1 .3-2 1.1-2.3.9-.3 1.1.1.7 1.6-.7 2.2.8 3.9 1.9 2.2.3-.5.1-1-.5-1s-.8-.5-.4-1.1c.4-.7 1.2-.2 2.3 1.3 2 2.8 3.7 3.3 4.5 1.2.4-1.1.2-1.5-.8-1.1-.8.3-2-.1-2.7-.9-.7-.9-2.6-2.2-4.2-3.1-1.9-1-2.6-1.8-1.9-2.5 1-1 .5-4.9-.7-4.7-.3.1-1.6.6-2.8 1.3zm2.2.6c-.3.5-.1 1 .6 1s1 .3.6.6c-.9.9-2.8-.6-2.2-1.7.4-.5.8-.9 1.1-.9.3 0 .2.4-.1 1zm-1.4 2.7c1.3 1.6 1.2 1.7-.3.4-1.7-1.3-2.2-2.1-1.4-2.1.2 0 1 .8 1.7 1.7zm1.2 4.3c-1 1.1-1.9 2-2.1 2-.1 0 .2-.9.8-2 .6-1.1 1.5-2 2-2 .6 0 .2.9-.7 2zm-10.9 5.8c.2.4-.4.9-1.5.9-1.1.1-1.7-.2-1.4-.8.7-1.1 2.2-1.2 2.9-.1zM352.6 351.8c-.3.6-.1 1.4.5 1.7 1.4.9 2 .2 1-1.4-.6-.8-1.1-.9-1.5-.3zM360.5 353.6c-1.7 2.6-1.5 4.1.4 2.9.6-.3.9-1.2.5-1.8-.3-.7 0-.5.8.4 1.7 2.1 2.9 2.3 3.9.7.7-1 .9-.9.9.4 0 1 .4 1.8 1 1.8 1.6 0 0-2.6-3-4.8l-2.8-2.1-1.7 2.5zm3.6.1c1.3 1.6 1.2 1.7-.3.4-1-.7-1.8-1.5-1.8-1.7 0-.8.8-.3 2.1 1.3zM383.1 353.8l-2 2.9 2.5 1.2c3 1.3 3.7 1.4 3 .3-.3-.5.1-.9.9-.9s1.5.3 1.5.7c0 .3.9.6 2 .7 1.7.1 1.8-.1.8-1.7-.8-1.2-1.5-1.5-1.9-.9-.3.6-.9 1.1-1.3 1.2-1.1.3-2.8-3.2-2.1-4.2.3-.5.1-1.2-.4-1.5-.5-.4-1.9.7-3 2.2zm2.3 2.3c-.3.5-1 .7-1.5.3-.5-.3-.7-1-.3-1.5.3-.5 1-.7 1.5-.3.5.3.7 1 .3 1.5zM449 352.5c-1 1.2-.9 1.6.4 2.1.9.3 1.4 1 1.1 1.4-.7 1.2 1.3 2.3 2.6 1.4.8-.4.4-1.3-1.2-2.6-2.1-1.6-2.1-1.7-.4-1.2 1.2.3 1.6.2 1-.3-.5-.4-1.3-1.2-1.6-1.6-.3-.4-1.2-.1-1.9.8z"/><path d="M119.4 355.2c-.2.4 0 1 .6 1.3.8.5.7 1.1-.1 2.1-1 1.2-.8 1.8.7 2.9 2.2 1.7 4.4 1.9 4.4.5 0-.6-.6-.9-1.2-.8-.7.2-1.2-.3-1-1.1.2-.9-.3-1.1-1.5-.7-1.7.6-1.7.5-.1-.7 1-.8 1.5-1.7 1.1-2.1-.4-.4.1-.4 1.2 0 1.2.5 1.4.9.7 1.2-1 .3-1 .7-.1 1.8.6.8 1.6 1.1 2.2.7.6-.4.7-.1.2.7-1.4 2.3-1.5 6.2-.1 5.7.7-.3 1.3.1 1.3.9 0 .9-.6 1.3-1.4 1-.8-.3-1.1-.2-.8.3.3.6-.2 1.4-1.1 1.9-1.9 1.1-2 2.2-.2 3.4 1.7 1.1-3.1.6-4.9-.5-.8-.5-1.3-.3-1.3.5 0 1-.2 1-.9-.1-.5-.7-1.1-.9-1.4-.5-.3.5.1 1.5.9 2.2.8.7 1.4.9 1.4.4 0-.8 2.7-.8 6.7-.1.4.1 1 0 1.3-.1 1.7-.8 6.9-.6 6.4.2-.4.6.3.5 1.4-.1 1.4-.7 2.9-.8 4.5-.2 1.4.6 2.8.7 3.1.3 1.1-1 4.6-.9 4.6.2 0 .7.3.7.8.1.9-1.3 10.3-1.5 9.5-.2-.3.5.3.4 1.4-.1 2.1-1.2 5.5-1.1 6.4.1.3.5.9-.1 1.2-1.2.4-1.8.2-1.9-1.4-1-1.3.7-2.5.6-3.7-.1-1.4-.9-1.3-1 .7-.4 1.6.4 2.1.3 1.7-.5-.4-.6-.2-.9.7-.5.8.3 1.4-.2 1.4-1.1 0-1.8-.5-1.8-3.7 0-3.1 1.8-4.1 1.8-3.7.2.1-.6-.5-1.2-1.3-1.2s-1.4.5-1.3 1.2c.3 1.6-3.5 1.2-4.1-.4-.8-1.9.5-4.8 1.4-3.3.5.8.9.5 1.3-.9.4-1.8.2-1.9-1.4-1-1 .5-1.9 1.5-1.9 2.1 0 .7-.5.6-1.5-.2-1.2-1-1.3-1.5-.3-2.8.7-.8 1.3-1.8 1.3-2.1 0-.3.5-.5 1.2-.5.8.1.7-.6-.4-2.2-.8-1.3-1.9-2.2-2.3-1.9-.5.3-1 .2-1.3-.2-.2-.5-.3-.3-.1.3.1.6-1.1 1-2.6 1s-2.7-.4-2.6-1c.2-.6.1-.8-.1-.3-.3.4-1 .4-1.6 0-.7-.4-.7-.1.1.9.8 1 .9 1.9.3 2.2-1 .7-1 2.4.2 4.2.4.7 0 1.7-.8 2.4-1 .8-1.5.9-1.5.2 0-.6-.9-1.6-1.9-2.1-1.6-.9-1.8-.8-1.4 1 .4 1.4.8 1.7 1.3.9.5-.8.9-.6 1.4.6.5 1.2.1 2.3-1 3.1-2.3 1.6-3.5 1.7-3.1 0 .1-.6-.5-1.2-1.3-1.2s-1.4.5-1.3 1.2c.1.6-.4 1.4-1.3 1.7-.8.3-1.2.2-.9-.3.3-.5 0-1.3-.5-1.6-.8-.5-.6-1.3.5-2.5 1.5-1.7 1.5-1.9-.6-3.9-2-1.8-2-2.1-.5-2.7 1.3-.5 1.4-.9.5-2-.6-.8-1.6-1.1-2.2-.7-.6.4-.8 0-.4-1 .3-.9.2-1.9-.4-2.2-.5-.4-.7-1-.4-1.5.3-.4-.7-.7-2.1-.6-1.4 0-2.8.4-3 .8zm29.2 5.4c-.1.8-.9 1.9-1.6 2.4-1.9 1.2-2.1 3.7-.4 4.4 1.1.4 1.2 1 .4 2.5-1.3 2.6-1.3 2.8.5 2.8 1 0 1.4-.6 1-1.6-.3-1.1 0-1 1 .3.8 1.1 1.5 2.5 1.5 3 0 .6-.4.5-.9-.2-.4-.8-1.2-1.4-1.6-1.4-.4 0-1.2.6-1.6 1.4-.7 1-.9 1-.9-.2 0-1.3-.1-1.3-1.1 0-.8 1.2-1.2 1.2-1.6.2-.4-1-.9-.9-1.9.5-1.3 1.7-1.4 1.7-.7-.2.6-1.8.5-1.8-1-.7-1.2 1-2.1 1.1-3.4.3-1.2-.7-1.3-1-.4-1.1.8 0 2-.8 2.7-1.8 1.1-1.3 1.3-1.4.9-.1-.4 1 0 1.6 1 1.6 1.8 0 1.8-.2.5-2.8-.8-1.5-.7-2.1.4-2.5 1.7-.6 1.5-3.2-.3-4.4-1.6-.9.1-2.2 2.1-1.5.7.3 2.2-.1 3.3-.9 2.5-1.9 2.4-1.9 2.1 0zM127 374.1c-1.4 2.5-1.7 2.4-1.4-.4.3-3 .3-2.9 1.4-2.2.7.4.7 1.3 0 2.6zm6.4-.3c.2.4-.4.8-1.4.8-1 0-1.6-.4-1.4-.8.3-.4.9-.8 1.4-.8.5 0 1.1.4 1.4.8zm24 0c.2.4-.4.8-1.4.8-1 0-1.6-.4-1.4-.8.3-.4.9-.8 1.4-.8.5 0 1.1.4 1.4.8z"/><path d="M143 363.4c.7.7 1.3.7 2 0 .6-.6.3-1-1-1s-1.6.4-1 1zM142.7 368.9c-.2 1-.1 2.5.4 3.2.8 1.2 1 1.2 1.8 0 .9-1.5.3-5.1-.9-5.1-.4 0-1 .9-1.3 1.9zM407.1 355.4c-1.2 1.5-2.8 1.6-4.7.3-.6-.3-1.4-.3-1.8 0-1 1-3.6 1.3-3.6.4 0-1.4-2.9-.8-3.5.7-.3.8 0 1.2.7.9.7-.2 2.2.3 3.2 1.2 1.8 1.5 1.9 1.5 1.3-.2-.6-1.5-.4-1.6 1.3-.7 1.5.8 2 .8 2-.2 0-.6.6-.4 1.3.7 1.3 1.7 1.4 1.7 2.9-.4 1-1.4 1.8-1.8 2.3-1.2.3.6 0 1.1-.7 1.1-.8 0-.7.5.5 1.7.9.9 2 1.3 2.4.9.4-.4.1-1.1-.7-1.6-.8-.6-1.1-1-.6-1 .5 0 .3-.6-.3-1.3-.6-.8-.8-1.7-.4-2 .3-.4.4-.7.1-.7-.3 0-1.1.6-1.7 1.4zM422.9 354.5c-.1.6-.1 1.3 0 1.7.1.7-1.4 1.2-3 1-.3-.1-1.1 1-1.7 2.3-1.4 3 .3 3.4 1.8.5.8-1.5 1.7-1.9 3.3-1.5 1.6.5 1.8.4.8-.3-1.1-.8-1.1-1 0-1.5 1.1-.4 1.2-.7.2-1.8-.7-.7-1.4-.9-1.4-.4zM432.5 355c-.4.6-1 .8-1.5.5-.5-.3-1.2-.1-1.5.5-.5.8-1.2.7-2.3-.2-1.2-1-1.4-1-.8-.1.4.7.3 1.3-.1 1.3-.5 0-.9.9-1 2.1-.2 1.8 0 1.9 1.5.7.9-.7 2-1.8 2.4-2.3.5-.6.8-.5.8.2s.7 1 1.5.7c.8-.4 1.2-1.1.8-1.7-.4-.6-.1-.7.7-.2.9.5 1.1.4.6-.3-.4-.7-.2-1.2.3-1.2 1.4 0 1.4 1.7.1 2.5-.5.3-1 1.1-1 1.7 0 .6.7.5 1.8-.4.9-.9 2.3-1.3 3-1.1.7.3 1-.1.6-1.1-.3-.9-1-1.4-1.4-1.1-.5.3-1.1.1-1.5-.5-.3-.5-1-1-1.5-1s-1.2.5-1.5 1zM356.5 356c-.3.5-.4 1-.1 1 .2 0-.5 1.1-1.7 2.4-1.5 1.7-2.5 2.2-3.4 1.4-.8-.6-1.8-.6-3 .1-1 .6-1.3 1.1-.7 1.1 1.6 0 1.3 2.8-.4 3.5-1.6.6-3.4-.3-2.8-1.4.3-.4-.1-.8-.9-.8s-1.7.7-1.9 1.4c-.3.8-1 1.1-1.6.8-1.5-.9-1.2 1.1.3 2.4 1 .7 1.7.7 2.4 0 .8-.8 1.3-.8 1.7 0 .4.6 1.2 1.1 1.7 1.1.6 0 .8-.4.4-.9-.3-.5-.1-1.2.4-1.5.5-.4 1.2-.2 1.6.4.7 1.2 2.5.4 2.5-1.1 0-.6-.4-.8-.8-.5-.5.3-.9-.1-.9-.9s.4-1.5.9-1.5.6-.5.2-1.2c-.4-.7-.3-.8.4-.4.6.4.9 1.4.6 2.4-.4 1.2.1 1 1.5-.7 1.2-1.3 2.1-1.7 2.1-1s.3.9.7.6c.3-.4 1.2-.2 2 .4.8.7 1.3.8 1.3.1 0-1.4-2.5-3.3-3.3-2.5-.4.3-.7.1-.7-.5 0-1.6 1.3-1.5 2.9 0 1.1 1.1 1.3 1 .9-.2-.8-2.3 4.1-2 5.3.2 1.5 2.7 3 2.2 1.8-.6-.8-1.8-1.8-2.3-3.7-2.1-3.2.3-5.4-.4-4.6-1.6.3-.5.3-.9 0-.9s-.8.4-1.1 1zm-12.1 9.8c.2.4-.4.9-1.5.9-1.1.1-1.7-.2-1.4-.8.7-1.1 2.2-1.2 2.9-.1zM375 356.5c-1.3 1.5-.4 3.9 1.1 3 .5-.4.9-.1.9.4 0 1.4-1.7 1.4-2.5.1-.8-1.2-3.5.6-3.5 2.2 0 .6.6.5 1.4-.1 1.1-.9 2-.9 3.5-.2 2.6 1.4 3.2 1.4 2.9-.2-.2-.6.4-1.2 1.2-1.2.8 0 1.4.6 1.2 1.4-.2.9.3 1.1 1.4.7 2.1-.8 4.5 1.1 3.7 3-.4 1 0 1.2 1.1.8 1.8-.7 1.7-2.4-.3-4-1.1-.9-1.1-1.1.3-1.1.9 0 1.6.5 1.6 1.1 0 .6.5.3 1.1-.7.6-1 .8-2.1.5-2.4-.3-.4-.6 0-.6.8 0 1.1-.2 1.2-.9.1-.7-1.2-1.2-1.2-2.9-.1-1.8 1.1-2.4 1.1-3.4.1-1.1-1.1-.9-1.2.7-.7 1.5.5 1.7.4.6-.3-.9-.6-2.3-.7-3.7-.2-2.4.9-4-.2-2.9-1.9.9-1.6-1.2-2.2-2.5-.6zM143 358c0 .5.5 1 1 1 .6 0 1-.5 1-1 0-.6-.4-1-1-1-.5 0-1 .4-1 1z"/><path d="M369.5 358.1c-.4.6-1.3.8-2.1.5-.8-.3-1.1 0-.7 1 .3.8 1.2 1.3 1.9 1 .7-.3 1.1 0 .8.7-.8 2.1-4.3 1.7-5.9-.6-1.4-2-1.6-2-3.2-.4-1.3 1.2-1.4 1.7-.4 1.7 1.1 0 1.1.3.1 1.5-.7.8-1.7 1.2-2.4.8-2.3-1.5-3.6-1-5.7 1.8-1.8 2.5-2.3 2.8-3.7 1.7-1-.8-1.3-.9-.9-.1 1 1.6-1.1 2.7-2.7 1.4-1.4-1.1-2.6-.5-2.6 1.3 0 .6.4.5.9-.3.7-1 1.1-.9 2.2.5 2 2.7 3.4 2.7 4.9-.2 1-1.8 1.9-2.3 3.4-1.8 1.8.6 1.9.5.8-.9-.8-.9-1.1-2.1-.7-2.8.6-.8 1-.8 1.5.2 1 1.5 4 2.1 4 .8 0-.6.5-.7 1.2-.3.7.5.8.3.3-.6-.5-.9-.4-1.1.4-.6.6.4.8 1.2.5 1.8-.4.6-.1.9.7.6.8-.3 1.4-1 1.4-1.6 0-.7.3-1.2.8-1.2h1.3c.4 0 .1.7-.6 1.5-1.8 2.2.3 1.8 2.7-.4 2-1.9 2.1-1.9 3.2.5 1 2.4 3.1 2.5 3.1.3 0-.6-.4-.7-1-.4-.6.4-.7-.1-.3-1.1.4-1 .8-1.3 1-.7.3.7 1.2.9 2 .6 1.4-.6 1.4-.7-.3-1.4-1-.3-2.4-.2-3.1.3-1.9 1.5-2.7-1.1-.9-3.1.9-1 1.6-2.1 1.6-2.4 0-1.1-2.8-.8-3.5.4zm-6.1 3.8c.3.5 0 1.1-.7 1.4-.8.3-1.4-.1-1.4-.9 0-1.6 1.3-1.9 2.1-.5zM292.9 358.7c-.9.2-2.1 1.5-2.8 2.9-.6 1.5-.7 2.3-.1 1.9 1.6-1 1.1.1-.7 1.6-.9.8-1.4.9-1 .3.4-.7 0-1.5-.9-1.8-2.2-.8-2.6-.8-1.9.3.6 1.1-3.3 3.6-4.3 2.7-.3-.3-1.4.2-2.4 1.1-1.7 1.5-2 1.5-2.8.3-1.3-2-1.2-3.1.1-2.8.6.2 1.4-.4 1.6-1.2.4-1.2.3-1.2-.5-.2-.7 1.1-1 1-1.6-.3-.3-.9-.4-2.1-.1-2.5.3-.5.1-1.1-.5-1.5-1.4-.9-4.9 5.3-4.3 7.6.3 1 1 1.9 1.5 1.9s.6-.5.3-1c-1.2-1.9 2-.5 3.5 1.5 1.5 2.1 1.6 2.5.3 2.5-.5 0-.8-.5-.8-1.2 0-.6-.6-1.3-1.4-1.6-.8-.3-1.1 0-.7.6.3.6.2 1.3-.4 1.7-.6.4-.8 1-.5 1.4.7 1.2 5.3.5 7.2-1.1.9-.7 2.4-1.2 3.5-1 1 .2 1.8-.2 1.8-.8 0-.6-.4-.9-.9-.5-.5.3-1.2.1-1.5-.4-.4-.5-.1-1.3.5-1.7.8-.5 1-.2.5.7-.4.8.1.3 1.2-1 1.4-1.8 2.1-2 2.4-1 .4 1.2.9 1.2 3.1 0 2.6-1.4 3.1-3 1.2-4.3-.6-.5-.3-.8.7-.8.9 0 1.9-.6 2.1-1.3.4-1 .6-1 .6 0 .1 1.5 2.1 1.8 2.1.4 0-1.1-2.1-1.8-4.1-1.4zm-18.2 5.6c-.1.5-1.1 1.1-2 1.3-1.4.2-1.5-.1-.6-1.7 1-2 3.3-1.6 2.6.4zm5.8 4.4c-.2 1-.4 1.9-.4 2.1-.1.2-.6 0-1.1-.3-.8-.5-.7-1.1.1-2.1 1.5-1.8 1.8-1.8 1.4.3zM392.9 359.9c-1.3 1.1-2 2.3-1.6 2.7.4.5 1.2.2 1.7-.6.5-.7 1.6-1.5 2.5-1.6 1.3-.2 1.4.1.5 1.1-.9 1.1-.7 1.4.9 1.2 1.2-.1 2.1-.5 2.1-1s.7-.4 1.5.3 1.2 1.6.9 2.1c-.3.5 0 .9.5.9 1.5 0 1.3-2.1-.3-4.3-1-1.2-1.6-1.5-2.1-.7s-1.2.7-2.5-.5c-1.6-1.4-1.9-1.4-4.1.4zM415.6 359.5c-1.7 1.7-1.1 4.3 1.3 6.2 2.2 1.7 3.6 1.6 2.2-.1-.8-1-.9-1.6-.1-2.1 1-.6 1.1-.5 1.4 1.3.2 1.6 3.5 4.2 4 3.3.3-.5 0-1.1-.8-1.4-.8-.3-1.3-1.4-1.2-2.3.3-2 2.6-3.2 2.6-1.4 0 1 .4 1 1.5 0 .8-.7 1.5-.9 1.5-.4s.5.1 1.1-.9c.6-1 .8-2.1.5-2.4-.3-.4-.6-.1-.6.6s-.4 1-.9.6c-.5-.3-1.3 0-1.6.5-.5.8-1.3.6-2.6-.6-1.8-1.6-2-1.6-3.7.6-1.5 1.9-2.2 2.1-3.8 1.2-1-.6-1.4-1.2-.8-1.2.7 0 1.4-.7 1.8-1.5.7-1.9.1-1.9-1.8 0zm6.9 2.5c-.3.5-1.1 1-1.6 1-.6 0-.7-.5-.4-1 .3-.6 1.1-1 1.6-1 .6 0 .7.4.4 1z"/><path d="M435 359.5c-.9 1.1-1.6 1.2-2.5.5-.8-.7-1.5-.3-2.3 1.6-.7 1.4-1.6 2.3-2.1 1.9-.5-.3-1.3-.1-1.6.5-.5.8-1.1.8-1.9.1-.9-.8-1.3-.7-1.3.4 0 .8.4 1.2.8 1 .4-.3 1 .3 1.3 1.2.4.9.1 2-.5 2.4-1.5.9-3.9.1-3.9-1.3 0-.5-.5-.6-1.1-.2-.8.5-.7 1 .4 1.6 1 .5 1.4 1.5 1 2.6-.6 1.6-.5 1.6 1.4-.1 1.6-1.4 2.2-1.5 3.1-.4.7.8.7 1.8.2 2.7-.6.8-1 1-1 .4s-.7-1.1-1.5-1.1-1.5.5-1.5 1.1c0 .6-.5.4-1-.4-.8-1.3-1.3-1.3-3.1-.2-1.1.8-1.8.9-1.5.3.4-.5-.2-.9-1.4-.8-1 .1-2.1.6-2.4 1.3-.3.7 1.1 1 4 .9 2.5-.1 4.4.3 4.4.9 0 .6.4.5.9-.2.4-.8 1.2-1.4 1.6-1.4.4 0 1.2.6 1.6 1.4.5.7.9.8.9.3 0-1.2 12.2-1.4 13.1-.2.3.5.9.1 1.2-.8.5-1 .3-1.4-.5-.9-.7.4-.8.3-.4-.4.9-1.5-.7-1.5-2.1-.1-.9.9-1.9.6-4.1-.9-1.6-1.2-3.2-1.8-3.6-1.5-.4.4.3 1.2 1.5 1.8 2 1.1 1.9 1.2-1.2 1.3-2 0-2.8-.2-2-.7 1.7-1.1 1.6-2-.6-3.8-1-.8-1.2-1.1-.5-.8 1.2.6 1.2.3.2-1.5-.8-1.5-.8-2-.1-1.6.6.4 1.4.1 1.7-.8.3-.8 1.4-1.3 2.5-1.1 2.2.4 2.5-.5.7-2.3-.9-.9-.9-1.2 0-1.2.7 0 1.2.4 1.2.8s.9.8 2.1.9c1.8.2 1.9 0 .7-1.4-1.1-1.4-1.1-1.5.1-.8 1 .6 1.2.4.6-.5-.5-.9-.4-1.1.4-.6.6.4.9 1.2.6 1.7-.4.5-.2.9.4.9 2 0 2.1-1.9.2-2.9-1.4-.8-2.2-.7-3.1.4zM331.3 360.3c.2.7 1 1.2 1.8 1.3 4 .3 4.4.4 3.2 1.2-.7.4-1.5 2.4-1.7 4.4-.4 2.9-.2 3.6.9 3.2 1.5-.6 1.6-2.5.1-3.5-.4-.4-.3-1 .3-1.3 1-.6 1.2-.1 1.1 2-.1.3.9 1.4 2.2 2.5 1.3 1.1 1.7 1.7.9 1.3-1.1-.5-1.3-.3-.8 1 .4 1 .3 1.5-.3 1.1-.6-.3-1 0-1 .7 0 .8-.3.9-.8.3-.4-.6-1.5-1.7-2.5-2.4-1.7-1.3-1.8-1.3-1.5.4.1 1-.3 2-.9 2.2-.7.3-1.3 0-1.3-.7 0-.6.5-.8 1.2-.4s.8.3.4-.5c-.4-.6-1.2-.9-1.7-.6-.5.4-.9.1-.9-.5 0-.7-.5-.6-1.4.2-.8.7-1.2 1.6-1 1.9.1.3-1.7.5-4.1.4-2.4-.1-4.9.2-5.7.7-.8.6.6.7 4 .5 3.1-.2 5.2.1 5.2.7 0 .5.7.1 1.6-1 .8-1 1.3-1.4 1-.7-.4.8.3 1 2.4.8 2.2-.3 2.9-.1 2.3.8-.5.9-.3.9.8.1 1.6-1.2 2.9-1.2 4.7-.1.6.5 1.2.7 1.3.5.8-3.1.3-5.9-1.7-8.9-1.4-2-2.4-4-2.3-4.5.4-2.1-.2-3.5-1.1-2.9-.5.3-1 .2-1-.2 0-.5-.9-.9-2.1-1-1.2-.1-1.9.3-1.6 1z"/><path d="M402 359.7c0 .7.7 1.6 1.6 2.1 1.9 1 1.8 2.4-.2 3.5-1.7.9-3.7 0-2.9-1.4.4-.5.2-.9-.4-.9-.5 0-.9.9-.8 1.9 0 1.1.4 1.8.7 1.6.4-.2.7.2.7 1s-.3 1.5-.7 1.5c-.3 0-.6.8-.7 1.8-.1 1.1.6 1.8 1.9 1.9 1.5.2 1.7-.1.8-1.2-.9-1-.8-1.9.1-3.6 1.1-2.1 1.3-2.1 2.4-.6 1.6 2.2 2 2.1 2.2-.3.1-1.1-.2-1.8-.6-1.6-.4.3-.8-.1-.8-.9s.4-1.5.9-1.5.6-.4.3-1c-.4-.6.1-.7 1.1-.3 1.1.4 1.3.8.6 1.1-1.7.5-1.5 1.9.3 1.9.8 0 1.2-.4.9-.9-.3-.4 0-.8.5-.8 1.4 0 1.4 1.7.1 2.5-.5.3-1 1.1-1 1.7 0 .6.8.4 1.8-.5 1.2-1.1 2.2-1.3 3.2-.7 1 .7 1.1 1 .3 1-.7 0-1.2.3-1.2.7.3 2-.2 3.4-1.1 2.8-.6-.4-.7.1-.4 1.2.5 1.5.4 1.6-.6.3s-1.1-1.2-.5.5c.5 1.6.4 1.8-.6.7-1-.9-1-1.5-.1-2.4 1.9-1.9 1.4-3.3-.5-1.6-1 .9-2.4 1.3-3.2 1-.8-.3-1.1 0-.7.7.4.6.2.9-.7.5-.8-.3-1.4.2-1.4 1.1 0 1.8.2 1.8 2.9.4 1.1-.6 1.8-.7 1.5-.2-.3.5.3 1.4 1.4 2.1 1 .7 1.9.9 1.9.5 0-.5.9-1.9 1.9-3.1 1.6-2.2 1.9-2.3 3.4-.7 1 .9 1.7 1.1 1.7.5 0-.6.4-.9.9-.5.5.3 1.3 0 1.7-.6.4-.8.3-.9-.4-.5s-1.2.3-1.2-.3c0-.9-6.4-8.1-6.5-7.3-.1.9-5.5-2.2-5.5-3.1 0-.5-.7-.4-1.6.4-1.3 1-1.7 1-2.5-.2-.5-.9-.9-1-.9-.2zm15.3 8.7c.4 1 .1 1.3-.9.9-1.5-.6-1.9-2.3-.5-2.3.5 0 1.1.7 1.4 1.4zM454.9 361c-.1.8-.1 1.9 0 2.3.2 1.1-2.7 6.5-3.8 7.1-1.6 1-6.2-1.6-5.7-3.1.4-.8.1-1.1-.5-.7-.6.3-2.4-.3-4-1.5-1.5-1.1-3.1-2.1-3.4-2.1-1.2 0-.4 2.8 1.3 4.3 2 1.9 3.7 2.3 2.7.7-.3-.6-.1-1 .4-1 .6 0 1.1.4 1.1.8 0 .5 1.7 1.6 3.7 2.6 3.6 1.7 3.7 1.9 1.8 3.2-1 .8-2.6 1.2-3.4.9-2.1-.6-4.7 1-3.2 1.9.6.4 1.1.4 1.1-.1 0-.4 2.2-.8 4.9-.8 2.7-.1 4.7.3 4.4.8-.3.5.5.3 1.8-.3 1.9-1.1 2-1.4.8-2.4-.8-.6-1.5-1.8-1.7-2.6-.2-1.1.1-1 1.2.3 1.1 1.4 1.5 1.5 2 .5.4-.9.5-.9.5.2-.2 2.7.1 4 .9 4 .4 0 .7-1.1.7-2.5s-.2-2.5-.5-2.5c-.5 0-.4-4.2.3-9.2.3-2.1 0-2.6-1.4-2.5-1.1.1-2 .8-2 1.7zm2.1 2.9c-.5 1-.6 2.1-.3 2.5.3.3.1.6-.5.6-.7 0-1.2.5-1.2 1.1 0 .5.5.7 1 .4.6-.3 1-.2 1 .4 0 .5-.4 1.2-.9 1.5-1.4.9-2.2-2.3-1.1-4.4.6-1.1 1-2.3.9-2.7-.3-1.7.1-2.4 1.1-1.8.7.4.7 1.2 0 2.4zm-16.9 1.8c1.3 1.6 1.2 1.7-.3.4-1.7-1.3-2.2-2.1-1.4-2.1.2 0 1 .8 1.7 1.7zm12.6 6.8c0 .8-.6 1.6-1.3 1.9-.7.3-1-.2-.7-1.5.6-2.2 2-2.6 2-.4zM162.7 360.6c-.4.4-.7 1.2-.7 1.8 0 .6.4.5.9-.3.6-.9 1.1-1 1.5-.2.4.6.3 1.1-.2 1.1-1.4 0-1 2.9.6 3.5.8.3 1.2 0 .9-.7-.2-.7.3-2.2 1.2-3.2 1.5-1.8 1.5-1.9 0-1.3-.9.3-2.1.1-2.6-.4s-1.2-.6-1.6-.3zM303.6 360.9c-.3.5.1 1.1.9 1.4.9.4 1.2.1.8-.9-.6-1.6-1-1.7-1.7-.5z"/><path d="M159.7 362.1c.9.9.8 1.7-.3 3.4-1.8 2.8-.9 3.6 4.4 3.9 4.3.2 6.5 1.3 5.7 2.7-.4.5-.1.9.4.9 1.9 0 1.2-2.8-1.1-4.4-1.2-.9-1.8-1.6-1.2-1.6.5 0 1-.9 1.1-2.1.1-1.2-.3-1.9-1-1.6-.7.2-1.1 1.6-1.1 3 .1 1.5-.3 2.7-.7 2.7-.5 0-.9-.4-.9-.9s-.9-1.1-2-1.4c-1.1-.3-1.8-.2-1.5.2.2.4-.3.8-1.2.8-1.3 0-1.2-.3.4-1.7 1.7-1.3 1.8-1.9.8-3.3-.7-.9-1.6-1.7-2.1-1.7-.4 0-.3.5.3 1.1zM294.5 362c.3.6.1 1-.4 1-.6 0-1 .3-1 .7.3 2.1-.2 3.3-1.3 3-.7-.1-1.2.4-1 1 .3 1.6-.3 1.6-2.8.3-2.4-1.3-3.3.2-1.6 2.5 1.4 2 4.6 2.9 4.6 1.4s2.3-.5 4.2 1.8c1.3 1.6 2.7 2 4.8 1.8 2.1-.3 2.8-.1 2.4.7-.5.7-.3.8.7.2 1.9-1.2 3.2-1.2 4.7-.1.6.5 1.2.8 1.3.6.7-4.1.6-5.6-.7-5.6-.9 0-1.3.6-1 1.4.3.8.1 1.1-.4.8-.6-.3-1 0-1 .7 0 .8-.3.9-.8.3-.4-.6-1.5-1.7-2.5-2.4-1.7-1.3-1.8-1.3-1.5.4.1 1-.3 2-.9 2.2-.7.3-1.3 0-1.3-.7 0-.6.5-.8 1.2-.4s.8.3.4-.5c-.4-.6-1.2-.9-1.7-.6-.5.4-.9 0-.9-.7 0-1-.3-.9-1 .2-.5.8-1.2 1.1-1.7.7-.4-.5-.1-1.2.7-1.7.8-.6 1.3-1 1-1.1-.3 0-1.3-.2-2.2-.4-1-.2-1.8 0-1.8.4s-.7.8-1.5.8c-1.2 0-1.2-.3.3-1.7 1.2-1.2 1.9-1.4 2.5-.6.5.6.6.1.2-1.1-.3-1.2-.1-2.5.6-2.9.8-.4.9-.3.5.5-1 1.5 2 6.1 3.9 6.1.8 0 1.5-.5 1.5-1.1 0-.5-.4-.8-.9-.4-.5.3-1.2.1-1.5-.4-.4-.5-.2-1.2.3-1.5.5-.4 1.3-.1 1.7.5.4.8.9.7 1.6-.2.6-1 .7-.7.3.8-.5 1.7-.3 2.2.8 1.8 1.5-.6 1.9-3.5.5-3.5-.5 0-.7-.4-.4-.8.6-1-3-.9-4 .1-1.1 1-2.6.8-1.9-.2.3-.5.1-1.2-.5-1.6-.6-.4-.8-1-.5-1.5.3-.4-.2-1.1-1.1-1.4-.8-.3-1.2-.2-.9.4zm-5.8 8.5c0 .8-.4 1.2-.9.9-.5-.3-.6-1-.3-1.5.9-1.3 1.2-1.1 1.2.6zM120 363c1.3.9 1.1 1.4-1.2 3.5-3.1 2.6-3.6 3.7-1.4 2.9.8-.3 1.7 0 2.1.6.6.9 1 .9 1.7-.1.8-1.1.9-1.1.5.1-.2.8-1 1.4-1.6 1.2-1.3-.2-1.5 1.4-.3 2.2.9.5 3.4-.8 3.3-1.8-.3-1.9 0-2.7.7-2.2.5.3.9-.1.9-.9s-.4-1.5-.9-1.5c-.4 0-.8.6-.8 1.2 0 .9-.4.8-1-.2-.7-1.1-1-1.1-1-.2 0 .7-.5 1-1.1.6-.8-.4-.7-.9.2-1.5.7-.4 1.7-.5 2.1-.3.4.3.8 0 .8-.6s.5-.8 1.2-.4.8.3.4-.5c-.4-.6-1.1-.9-1.6-.6-.4.3-1-.2-1.4-1-.3-.8-1.1-1.5-1.8-1.5-.9 0-.9.3.2 1zM320.5 366.1c-2.3 2.5-3 2.8-4.3 1.7-1-.9-1.3-.9-.9-.1 1 1.7-1.1 2.7-2.8 1.3-1.6-1.4-2.3-.3-2 3 .2 1.4.4 2.9.4 3.4.1.4.8.6 1.6.3.8-.4 1.7-.2 2.1.4.3.6 1.1.3 1.9-.7.8-1.1 2.8-1.9 5.4-2 2.2-.1 4.8-.8 5.7-1.5 1-.8 2.5-1.3 3.4-1.1 1 .2 2-.4 2.4-1.3.6-1.7-.5-4.8-1.7-4.6-2.1.3-2.7 0-2.1-1.2.6-.9.5-.9-.8 0-.8.7-1.8 1-2.2.6-1.5-1.5-3.5-.9-6.1 1.8zm5.9 1.2c-.6 1.9-.5 2 .9.8.9-.7 1.4-1.8 1-2.5-.4-.6.3-.4 1.6.4 2.1 1.4 3 3.3 1.4 2.7-.5-.1-.7-.6-.5-1 .1-.5-.3-.7-1-.5-.7.3-1.4 1-1.4 1.6-.3 2.4-.4 2.6-1.6 1.4-1.7-1.7-3.3-1.5-1.8.3.7.8 1 1.5.6 1.5h-1.3c-.5 0-.8-.5-.8-1.2 0-.6-.5-1.3-1.2-1.5-.7-.3-1.1.3-.9 1.4.3 1.3-.2 1.9-1.5 2.1-4.2.4-4.9.6-4.9 1.3 0 .9-2.7.5-3.7-.6-.4-.4-.2-.5.5-.1s1.2.1 1.2-.8-.4-1.6-1-1.6c-.5 0-1-.6-1-1.3.1-.6.9-.2 2 1.1 2.5 3 2.9 2.9 5.1-.5 1-1.5 1.9-2.4 1.9-1.8 0 .5.5.2 1.1-.8.6-.9 1.4-1.5 2-1.2.5.4 1.2-.1 1.5-.9.9-2.4 2.6-.8 1.8 1.7z"/><path d="M324.5 367c-.4.6-1.1.7-1.7.4-.7-.4-.8-.2-.4.5.6.9 1.1.9 2.2 0 1.4-1.1 1.8-1.9 1-1.9-.3 0-.8.5-1.1 1zM318.5 371c-.3.6.1.7.9.4 1.8-.7 2.1-1.4.7-1.4-.6 0-1.3.4-1.6 1zM377.5 364.3c-1.1.7-2.6 2-3.3 3-1 1.3-1.7 1.5-2.6.8-.7-.6-1.7-.7-2.1-.3-.5.4-.5-.1-.2-1.1.6-1.5.4-1.6-1.3-.7-2.5 1.3-4.7 5.2-2.8 4.8.7-.2 1.3.4 1.3 1.2 0 .8-.5 1.4-1.1 1.3-.7-.1-1 .6-.7 1.8.4 1.4.8 1.7 1.3.9 1-1.5 1.1-1.5 3.8-.1 1.2.6 2.2.8 2.2.3 0-.4 1.4-.8 3-.7 1.7 0 3 .4 3 1 0 .7.3.7.8 0 .9-1.2 8.4-1.3 9.3-.2.3.5.9-.1 1.2-1.2.3-1.3.1-1.9-.5-1.5-1.9 1.2-7.8 1.3-8.4.2-.4-.6-1-.5-1.5.3-.7 1.1-.9 1.1-.9-.1 0-1.3-.1-1.3-1 0s-1.1 1.3-2 0c-.9-1.3-1-1.3-1 0 0 1.2-.2 1.2-.9.1-.5-.8-1.1-.9-1.5-.3-.3.6-1.6 1-2.7.9-1.8-.1-1.8-.3-.5-1.3 1.7-1.2 2.2-2.9.6-1.9-.6.4-.7-.1-.3-1.1.4-1.1.3-1.5-.5-1-.6.3-1.3.2-1.6-.3-.4-.5-.1-1.3.5-1.7.7-.4.9-.3.5.4s.1 1 1.3.7c1.5-.3 1.8 0 1.4 1.2-.4 1.1-.2 1.4.5.9.7-.4 1-.2.6.7-.3.8.2 1.4 1.1 1.4 1 0 1.3-.6 1-1.8-.3-.9-.1-2 .5-2.4.5-.3 1-.1 1 .4 0 .6.5 1.1 1 1.1.6 0 1-.7 1-1.6 0-.9-.5-1.2-1.2-.8-.7.5-.8.3-.3-.6.6-1 1.1-1 2 .3.7.9 1.6 1.3 2 .9.4-.4.3.3-.4 1.5-1.4 2.8-1.4 3 .4 3 .9 0 1.4-.6 1.1-1.4-.4-.9-.1-1.1.6-.7.7.5.9.2.5-.9-.8-2 1.8-4.3 2.9-2.6.5.8.3.9-.6.4-.9-.5-1.1-.4-.6.3 1.3 2.1 2.5 1.3 2.2-1.5-.2-1.5-.9-2.9-1.7-3.1-1.1-.3-1-.1.1.7 1.3.9 1.3 1.1-.2 1.1-.9 0-2-.5-2.3-1-.8-1.2-1.5-1.2-4 .3zm4 .6c.7 1.2-1.2 2.4-2.5 1.6-1.1-.7-.4-2.5 1-2.5.5 0 1.1.4 1.5.9zM389.4 364.1c-.8 1.3 2.4 1.7 3.7.6.7-.7.5-.2-.5 1-1.8 2.1-1.8 2.4-.3 4.1 1 1 1.4 2.2 1 2.5-.3.4-.1.7.5.7 1.6 0 1.5-2.3 0-3.8-.9-.9-.9-1.5 0-2.4 2-2 1.4-3.6-1.4-3.4-1.4 0-2.8.4-3 .7z"/><path d="M396.5 364c-.3.5-.3 1 .1 1s-.1.7-1.2 1.5c-1.7 1.3-1.7 1.7-.4 2.8 1.8 1.5 2.4 3.6 1 3.8-2.7.5-3.5.3-3.5-.6 0-1.6-1.5-3.5-2.8-3.5-.8 0-.8.3.1.9 1.1.7 1 .9-.3 1.4-.9.4-1.3.3-1-.3.3-.6.1-1-.6-1-.6 0-.1-.9 1.2-1.9l2.4-2-2.2.6c-2.1.5-2.5 1-2.2 2.9.1.8-2.3 2.4-3.6 2.4-.5 0-.4-.4.3-.9 1-.6.9-1.1-.4-2.2-1.1-.9-1.5-.9-1-.2.4.7.3 2.1-.3 3.1-.8 1.5-.5 1.7 2.2 1.6 1.8-.1 3.9-.3 4.7-.5.9-.2 1.5.2 1.4 1.2-.1 1.2.7 1.6 3 1.4 1.7-.1 3.6.1 4.1.4 1.7.9 3.5 1 3.5.1 0-1 4-.7 5.7.3.6.4 1.4.3 1.8-.3.5-.9-1.5-1.5-3.8-1.1-.4.1-1.7-.4-2.9-1-1.1-.6-1.8-.7-1.4-.1.3.5-.1 1.3-1 1.6-.9.3-1.2.2-.9-.5.4-.5.1-1.6-.5-2.4-.7-.8-.8-1.5-.3-1.5s.9-1.4.9-3c0-1.7-.4-3-.8-3-.5 0-.6-.5-.3-1 .3-.6.4-1 .1-1-.3 0-.8.4-1.1 1zm.5 4c0 .5-.4 1-1 1-.5 0-1-.5-1-1 0-.6.5-1 1-1 .6 0 1 .4 1 1zM434.4 363.7c.4.7.2 1.3-.3 1.3-.6 0-1 .3-1 .7.3 2-.2 3.3-1.2 3.3-.8 0-.8-.4 0-1.4.8-1 .9-1.6.1-2.1-.5-.3-1-.1-1 .5s-.4.9-.9.5c-1.5-.9-2.3 1.3-1.1 3.2.9 1.5 1 1.4.5-.7-.6-2.5-.6-2.5 1 .2 1 1.8 2.1 2.5 3.1 2.1.9-.3 1.4 0 1.2.8-.2.8.4 1.4 1.2 1.4.8 0 1.4-.6 1.3-1.3-.4-1.6 1.2-1.5 2.6.2 1.1 1.3 7.4 1.6 8.6.4.3-.2-1.1-1.2-3.1-2.1-1.9-1-3.3-1.3-2.9-.7 1.2 1.9-.7 1-4.1-2-1.9-1.6-3.4-3.2-3.3-3.6 0-.3-.3-.9-.7-1.2-.4-.4-.4-.1 0 .5zm2.9 4.8c.7 1.6-.8 2.9-2.3 2-1-.6-.2-3.5 1-3.5.4 0 1 .7 1.3 1.5zM305.2 366.5c.1 1.1.7 2.3 1.3 2.7.5.4-.1 1.1-1.4 1.6-1.9.7-2.1 1-.8 1.5.9.3 1.8 0 2.1-.9.3-.9 1-1.2 1.6-.9 1.6 1 1.1-.5-1.1-3.3-1.8-2.3-2-2.4-1.7-.7zM354.8 367.2c.9 1.2 1 1.8.2 2.3-.6.4-1.4.4-1.7.1-.9-.8-3.4 1.5-2.7 2.5.5.8-.3 1.1-2.2.8-.4 0-1.1.5-1.5 1.3-.7 1-1.1.8-1.5-1-.7-2.5-1.9-2.9-2.7-.9-.6 1.7.9 4.4 1.9 3.4.4-.4 1.3-.2 1.9.3.9.8 1.4.6 1.9-.5.3-.8 1.1-1.5 1.8-1.5.9 0 .8.3-.2 1-1.3.8-1.2 1 .4 1 1.2 0 1.6-.5 1.2-1.6-.4-1-.2-1.3.6-.8.7.5.8.3.3-.6-.6-.9-.4-1.1.5-.5.9.5 1.1.4.6-.3-.6-1.1 0-1.4 2-1.1.8.1 2.4-2.2 2.4-3.5 0-.5-.3-.6-.7-.3-.3.4-1.3.1-2.2-.6-1.4-1-1.4-1-.3.5zM411.5 366.9c-.3.5-.2 1.2.3 1.5.5.3.9-.1.9-.9 0-1.7-.3-1.9-1.2-.6z"/><path d="M358.7 368.2c-.2.7-.1 2.2.3 3.2.6 1.8.7 1.8 1.3.2.4-.9 1.2-1.4 1.7-1.1 1.4.8.8 3-.8 3.1-.7.1-1.3.3-1.4.4-.7.7-4.7.6-4.2-.1.2-.4 1.1-.6 1.9-.2 1.1.4 1.3.1.9-1.1-.7-1.8-2.4-1.7-4.1.4-1.8 2.2-1.6 2.9.7 2.5 1.1-.2 2 .1 2 .7 0 .7.4.7 1.3-.1.8-.6 2.2-.9 3.3-.7 1.6.3 1.9-.2 2-4.1 0-2.4-.2-3.9-.6-3.2-.6.8-.9.8-1.4 0-.9-1.5-2.3-1.4-2.9.1zM402.7 368.9c-.3 1.3-.1 1.8.9 1.4.7-.2 1-1.1.7-1.9-.7-1.9-1-1.8-1.6.5zM407.3 368.5c0 .8.4 1.2.9.9.5-.3.6-1 .3-1.5-.9-1.3-1.2-1.1-1.2.6zM116.6 370.9c-1.7.6-1.7.8-.4 1.4 1 .3 1.9 0 2.2-.9.3-.8.4-1.4.3-1.3-.1 0-1.1.4-2.1.8zM166.1 370.9c-1 .6-1 1-.1 1.6.6.4.9 1.2.7 1.9-.3.8 1 1.2 3.7 1.3l4.1.2-3.3-1.5c-1.8-.7-3.1-1.8-2.8-2.3.9-1.3-.7-2.1-2.3-1.2zM336.6 370.9c-1.7.6-1.7.8-.4 1.4 1 .3 1.9 0 2.2-.9.3-.8.4-1.4.3-1.3-.1 0-1.1.4-2.1.8zM374.7 371.7c.3.7.9 1.3 1.3 1.3s1-.6 1.3-1.3c.3-.7-.3-1.3-1.3-1.3s-1.6.6-1.3 1.3zM423.6 371.8c-.3.5.1.9.9.9s1.2-.4.9-.9c-.3-.4-.7-.8-.9-.8-.2 0-.6.4-.9.8z"/></svg>